<svg width="188" height="13" viewBox="0 0 188 13" fill="none" xmlns="http://www.w3.org/2000/svg">
<g opacity="0.5">
<path d="M11.4863 12.4304V7.95462H11.0664C10.7724 9.27021 10.2264 10.3078 9.42845 11.0673C8.6445 11.8133 7.67855 12.1862 6.53062 12.1862C5.73267 12.1862 5.03971 12.0235 4.45174 11.698C3.86377 11.3589 3.3808 10.9113 3.00283 10.3552C2.63885 9.79917 2.37286 9.19562 2.20487 8.5446C2.03688 7.88002 1.95289 7.21544 1.95289 6.55086C1.95289 5.88628 2.03688 5.2217 2.20487 4.55712C2.37286 3.89254 2.63885 3.28221 3.00283 2.72613C3.3668 2.17006 3.84278 1.72926 4.43074 1.40376C5.03271 1.06468 5.73267 0.895149 6.53062 0.895149C7.67855 0.895149 8.6445 1.27491 9.42845 2.03443C10.2264 2.78039 10.7724 3.81795 11.0664 5.1471H11.4863V0.671361H11.0664C11.0244 0.90193 10.9334 1.12572 10.7934 1.34272C10.6534 1.55973 10.5064 1.72248 10.3524 1.83099C9.80643 1.27491 9.19746 0.847679 8.5255 0.549296C7.86754 0.250913 7.17458 0.101721 6.44662 0.101721C5.57867 0.101721 4.75272 0.271257 3.96877 0.610329C3.18481 0.935838 2.49185 1.39697 1.88989 1.99374C1.30192 2.59051 0.839951 3.28221 0.503971 4.06886C0.16799 4.8555 0 5.68284 0 6.55086C0 7.41888 0.16799 8.24622 0.503971 9.03286C0.839951 9.81951 1.30192 10.5112 1.88989 11.108C2.49185 11.7047 3.18481 12.1727 3.96877 12.5117C4.75272 12.8372 5.57867 13 6.44662 13C7.17458 13 7.86754 12.8508 8.5255 12.5524C9.19746 12.254 9.80643 11.8268 10.3524 11.2707C10.4924 11.3657 10.6324 11.5284 10.7724 11.759C10.9124 11.976 11.0104 12.1998 11.0664 12.4304H11.4863Z" fill="#1e1e1e"/>
<path d="M30.3714 6.55086C30.3714 5.68284 30.1894 4.8555 29.8254 4.06886C29.4614 3.28221 28.9574 2.59051 28.3135 1.99374C27.6695 1.39697 26.9206 0.935838 26.0666 0.610329C25.2127 0.271257 24.3097 0.101721 23.3578 0.101721C22.4198 0.101721 21.5239 0.271257 20.6699 0.610329C19.816 0.935838 19.067 1.39697 18.4231 1.99374C17.7791 2.59051 17.2751 3.28221 16.9111 4.06886C16.5472 4.8555 16.3652 5.68284 16.3652 6.55086C16.3652 7.41888 16.5472 8.24622 16.9111 9.03286C17.2751 9.81951 17.7791 10.5112 18.4231 11.108C19.067 11.7047 19.816 12.1727 20.6699 12.5117C21.5239 12.8372 22.4198 13 23.3578 13C24.3097 13 25.2127 12.8372 26.0666 12.5117C26.9206 12.1727 27.6695 11.7047 28.3135 11.108C28.9574 10.5112 29.4614 9.81951 29.8254 9.03286C30.1894 8.24622 30.3714 7.41888 30.3714 6.55086ZM23.3578 0.895149C24.2257 0.895149 24.9817 1.06468 25.6256 1.40376C26.2696 1.72926 26.7946 2.17006 27.2005 2.72613C27.6065 3.28221 27.9005 3.89254 28.0825 4.55712C28.2785 5.2217 28.3765 5.88628 28.3765 6.55086C28.3765 7.21544 28.2785 7.88002 28.0825 8.5446C27.9005 9.19562 27.6065 9.79917 27.2005 10.3552C26.7946 10.9113 26.2696 11.3589 25.6256 11.698C24.9817 12.0235 24.2257 12.1862 23.3578 12.1862C22.4898 12.1862 21.7339 12.0235 21.0899 11.698C20.4599 11.3589 19.942 10.9113 19.536 10.3552C19.13 9.79917 18.829 9.19562 18.633 8.5446C18.451 7.88002 18.3601 7.21544 18.3601 6.55086C18.3601 5.88628 18.451 5.2217 18.633 4.55712C18.829 3.89254 19.13 3.28221 19.536 2.72613C19.942 2.17006 20.4599 1.72926 21.0899 1.40376C21.7339 1.06468 22.4898 0.895149 23.3578 0.895149Z" fill="#1e1e1e"/>
<path d="M34.4572 12.6541H40.1478C41.3378 12.6541 42.3737 12.4982 43.2556 12.1862C44.1516 11.8743 44.8866 11.4403 45.4605 10.8842C46.0345 10.3281 46.4615 9.68388 46.7414 8.95149C47.0214 8.20553 47.1614 7.40532 47.1614 6.55086C47.1614 5.6964 47.0214 4.90297 46.7414 4.17058C46.4615 3.42462 46.0345 2.7736 45.4605 2.21753C44.8866 1.66145 44.1516 1.22744 43.2556 0.915493C42.3737 0.603547 41.3378 0.447574 40.1478 0.447574H34.4572V0.874804C34.9191 0.874804 35.2761 0.908711 35.5281 0.976526C35.7801 1.03078 35.9691 1.13928 36.0951 1.30203C36.2351 1.45123 36.3261 1.67501 36.368 1.9734C36.424 2.27178 36.452 2.69223 36.452 3.23474V9.84663C36.452 10.3891 36.424 10.8096 36.368 11.108C36.3261 11.4064 36.2351 11.6369 36.0951 11.7997C35.9691 11.9624 35.7801 12.0777 35.5281 12.1455C35.2761 12.1998 34.9191 12.2269 34.4572 12.2269V12.6541ZM38.132 1.20031C39.3219 1.20031 40.0008 1.20031 40.1688 1.20031C41.1488 1.20031 41.9677 1.35629 42.6257 1.66823C43.2836 1.98018 43.7946 2.40063 44.1586 2.92958C44.5226 3.44497 44.7746 4.01461 44.9146 4.6385C45.0685 5.24883 45.1455 5.88628 45.1455 6.55086C45.1455 7.21544 45.0685 7.85968 44.9146 8.48357C44.7746 9.0939 44.5226 9.65676 44.1586 10.1721C43.7946 10.6875 43.2836 11.108 42.6257 11.4335C41.9677 11.7454 41.1488 11.9014 40.1688 11.9014H40.0848C39.6229 11.9014 39.2659 11.8743 39.0139 11.82C38.7759 11.7522 38.5939 11.6437 38.4679 11.4945C38.3419 11.3318 38.2509 11.1012 38.1949 10.8028C38.1529 10.5044 38.132 10.084 38.132 9.54147V1.20031Z" fill="#1e1e1e"/>
<path d="M51.253 12.6541H61.5424L61.7104 9.94836H61.2694L61.1644 10.3552C61.0104 10.952 60.7864 11.3589 60.4924 11.5759C60.2124 11.7929 59.6245 11.9014 58.7285 11.9014H56.9226C56.4607 11.9014 56.1037 11.8743 55.8517 11.82C55.5997 11.7522 55.4037 11.6437 55.2637 11.4945C55.1377 11.3318 55.0467 11.1012 54.9908 10.8028C54.9488 10.4909 54.9278 10.0704 54.9278 9.54147V6.5712H55.9777C56.5377 6.5712 56.9716 6.59833 57.2796 6.65258C57.5876 6.69327 57.8186 6.78143 57.9726 6.91706C58.1406 7.03912 58.2526 7.229 58.3086 7.4867C58.3786 7.73083 58.4136 8.07668 58.4136 8.52426H58.8545V3.86541H58.4136C58.4136 4.31299 58.3786 4.66562 58.3086 4.92332C58.2526 5.16745 58.1406 5.35733 57.9726 5.49296C57.8186 5.61502 57.5876 5.70318 57.2796 5.75743C56.9716 5.79812 56.5377 5.81847 55.9777 5.81847H54.9278V1.20031H58.0356C58.9315 1.20031 59.5195 1.30882 59.7995 1.52582C60.0795 1.72926 60.3034 2.12937 60.4714 2.72613L60.5764 3.13302H61.0174L60.8284 0.447574H51.253V0.874804C51.7149 0.874804 52.0719 0.908711 52.3239 0.976526C52.5759 1.03078 52.7649 1.13928 52.8909 1.30203C53.0309 1.45123 53.1219 1.67501 53.1639 1.9734C53.2199 2.27178 53.2479 2.69223 53.2479 3.23474V9.84663C53.2479 10.3891 53.2199 10.8096 53.1639 11.108C53.1219 11.4064 53.0309 11.6369 52.8909 11.7997C52.7649 11.9624 52.5759 12.0777 52.3239 12.1455C52.0719 12.1998 51.7149 12.2269 51.253 12.2269V12.6541Z" fill="#1e1e1e"/>
<path d="M77.7181 12.6541V12.2269C77.2562 12.2269 76.8992 12.1998 76.6472 12.1455C76.3952 12.0777 76.1992 11.9624 76.0592 11.7997C75.9332 11.6369 75.8422 11.4064 75.7862 11.108C75.7442 10.8096 75.7232 10.3891 75.7232 9.84663V3.23474C75.7232 2.69223 75.7442 2.27178 75.7862 1.9734C75.8422 1.67501 75.9332 1.45123 76.0592 1.30203C76.1992 1.13928 76.3952 1.03078 76.6472 0.976526C76.8992 0.908711 77.2562 0.874804 77.7181 0.874804V0.447574H72.0485V0.874804C72.5104 0.874804 72.8674 0.908711 73.1194 0.976526C73.3714 1.03078 73.5604 1.13928 73.6864 1.30203C73.8264 1.45123 73.9174 1.67501 73.9594 1.9734C74.0153 2.27178 74.0433 2.69223 74.0433 3.23474V9.84663C74.0433 10.3891 74.0153 10.8096 73.9594 11.108C73.9174 11.4064 73.8264 11.6369 73.6864 11.7997C73.5604 11.9624 73.3714 12.0777 73.1194 12.1455C72.8674 12.1998 72.5104 12.2269 72.0485 12.2269V12.6541H77.7181Z" fill="#1e1e1e"/>
<path d="M82.5827 12.0438C82.7367 12.0709 82.9887 12.1727 83.3387 12.349C83.7726 12.5389 84.1786 12.6948 84.5566 12.8169C84.9486 12.939 85.3825 13 85.8585 13C86.4045 13 86.9154 12.9118 87.3914 12.7355C87.8814 12.5592 88.3084 12.3151 88.6723 12.0031C89.0363 11.6776 89.3233 11.2911 89.5333 10.8435C89.7433 10.3824 89.8483 9.88054 89.8483 9.33803C89.8483 8.7277 89.6733 8.15128 89.3233 7.60876C88.9733 7.06625 88.4204 6.61189 87.6644 6.2457L85.6485 5.24883C84.6966 4.76056 84.0316 4.3469 83.6536 4.00783C83.2897 3.65519 83.1077 3.22796 83.1077 2.72613C83.1077 2.21075 83.2967 1.78352 83.6746 1.44445C84.0666 1.09181 84.5566 0.915493 85.1445 0.915493C85.7325 0.915493 86.2225 1.01721 86.6145 1.22066C87.0204 1.4241 87.3424 1.70214 87.5804 2.05477C87.8184 2.39384 87.9934 2.76682 88.1054 3.17371C88.2314 3.58059 88.3154 4.01461 88.3574 4.47574H88.7983V0H88.3784C88.2944 0.366197 88.0914 0.678143 87.7694 0.935837C87.3914 0.66458 87.0064 0.461138 86.6145 0.325509C86.2365 0.176317 85.7675 0.101721 85.2075 0.101721C84.1996 0.101721 83.3666 0.393323 82.7087 0.976526C82.0507 1.55973 81.7217 2.27856 81.7217 3.13302C81.7217 3.86541 81.9457 4.52321 82.3937 5.10642C82.8417 5.68962 83.3946 6.15076 84.0526 6.48983L86.0685 7.4867C86.8384 7.88002 87.4334 8.28013 87.8534 8.68701C88.2734 9.08033 88.4834 9.50078 88.4834 9.94836C88.4834 10.5994 88.2314 11.1351 87.7274 11.5556C87.2374 11.976 86.6145 12.1862 85.8585 12.1862C84.9766 12.1862 84.2626 12.0167 83.7166 11.6776C83.1707 11.325 82.7717 10.9249 82.5197 10.4773C82.2817 10.0162 82.1277 9.61607 82.0577 9.277C82.0017 8.92436 81.9737 8.67345 81.9737 8.52426H81.5538V13H81.9737C82.0577 12.6202 82.2607 12.3015 82.5827 12.0438Z" fill="#1e1e1e"/>
<path d="M105.689 0.447574H100.145V0.874804C100.607 0.874804 100.964 0.908711 101.216 0.976526C101.468 1.03078 101.657 1.13928 101.783 1.30203C101.923 1.45123 102.014 1.67501 102.056 1.9734C102.112 2.27178 102.14 2.69223 102.14 3.23474V9.84663C102.14 10.3891 102.112 10.8096 102.056 11.108C102.014 11.4064 101.923 11.6369 101.783 11.7997C101.657 11.9624 101.468 12.0777 101.216 12.1455C100.964 12.1998 100.607 12.2269 100.145 12.2269V12.6541H105.815V12.2269C105.353 12.2269 104.996 12.1998 104.744 12.1455C104.492 12.0777 104.296 11.9624 104.156 11.7997C104.03 11.6369 103.939 11.4064 103.883 11.108C103.841 10.8096 103.82 10.3891 103.82 9.84663V7.3036H105.689C107.103 7.3036 108.209 6.98487 109.007 6.34742C109.805 5.6964 110.204 4.87585 110.204 3.88576C110.204 2.89567 109.805 2.07512 109.007 1.4241C108.209 0.773083 107.103 0.447574 105.689 0.447574ZM105.668 6.5712H103.82V1.20031H105.668C106.536 1.20031 107.194 1.45123 107.642 1.95305C108.104 2.45488 108.335 3.09911 108.335 3.88576C108.335 4.6724 108.104 5.31664 107.642 5.81847C107.194 6.32029 106.536 6.5712 105.668 6.5712Z" fill="#1e1e1e"/>
<path d="M128.01 6.55086C128.01 5.68284 127.828 4.8555 127.465 4.06886C127.101 3.28221 126.597 2.59051 125.953 1.99374C125.309 1.39697 124.56 0.935838 123.706 0.610329C122.852 0.271257 121.949 0.101721 120.997 0.101721C120.059 0.101721 119.163 0.271257 118.309 0.610329C117.455 0.935838 116.706 1.39697 116.062 1.99374C115.418 2.59051 114.914 3.28221 114.55 4.06886C114.186 4.8555 114.004 5.68284 114.004 6.55086C114.004 7.41888 114.186 8.24622 114.55 9.03286C114.914 9.81951 115.418 10.5112 116.062 11.108C116.706 11.7047 117.455 12.1727 118.309 12.5117C119.163 12.8372 120.059 13 120.997 13C121.949 13 122.852 12.8372 123.706 12.5117C124.56 12.1727 125.309 11.7047 125.953 11.108C126.597 10.5112 127.101 9.81951 127.465 9.03286C127.828 8.24622 128.01 7.41888 128.01 6.55086ZM120.997 0.895149C121.865 0.895149 122.621 1.06468 123.265 1.40376C123.909 1.72926 124.434 2.17006 124.84 2.72613C125.246 3.28221 125.54 3.89254 125.722 4.55712C125.918 5.2217 126.016 5.88628 126.016 6.55086C126.016 7.21544 125.918 7.88002 125.722 8.5446C125.54 9.19562 125.246 9.79917 124.84 10.3552C124.434 10.9113 123.909 11.3589 123.265 11.698C122.621 12.0235 121.865 12.1862 120.997 12.1862C120.129 12.1862 119.373 12.0235 118.729 11.698C118.099 11.3589 117.581 10.9113 117.175 10.3552C116.769 9.79917 116.468 9.19562 116.272 8.5446C116.09 7.88002 115.999 7.21544 115.999 6.55086C115.999 5.88628 116.09 5.2217 116.272 4.55712C116.468 3.89254 116.769 3.28221 117.175 2.72613C117.581 2.17006 118.099 1.72926 118.729 1.40376C119.373 1.06468 120.129 0.895149 120.997 0.895149Z" fill="#1e1e1e"/>
<path d="M132.096 12.6541H142.386L142.554 9.94836H142.113L142.008 10.3552C141.854 10.952 141.63 11.3589 141.336 11.5759C141.056 11.7929 140.468 11.9014 139.572 11.9014H137.766C137.304 11.9014 136.947 11.8743 136.695 11.82C136.443 11.7522 136.247 11.6437 136.107 11.4945C135.981 11.3318 135.89 11.1012 135.834 10.8028C135.792 10.4909 135.771 10.0704 135.771 9.54147V6.5712H136.821C137.381 6.5712 137.815 6.59833 138.123 6.65258C138.431 6.69327 138.662 6.78143 138.816 6.91706C138.984 7.03912 139.096 7.229 139.152 7.4867C139.222 7.73083 139.257 8.07668 139.257 8.52426H139.698V3.86541H139.257C139.257 4.31299 139.222 4.66562 139.152 4.92332C139.096 5.16745 138.984 5.35733 138.816 5.49296C138.662 5.61502 138.431 5.70318 138.123 5.75743C137.815 5.79812 137.381 5.81847 136.821 5.81847H135.771V1.20031H138.879C139.775 1.20031 140.363 1.30882 140.643 1.52582C140.923 1.72926 141.147 2.12937 141.315 2.72613L141.42 3.13302H141.861L141.672 0.447574H132.096V0.874804C132.558 0.874804 132.915 0.908711 133.167 0.976526C133.419 1.03078 133.608 1.13928 133.734 1.30203C133.874 1.45123 133.965 1.67501 134.007 1.9734C134.063 2.27178 134.091 2.69223 134.091 3.23474V9.84663C134.091 10.3891 134.063 10.8096 134.007 11.108C133.965 11.4064 133.874 11.6369 133.734 11.7997C133.608 11.9624 133.419 12.0777 133.167 12.1455C132.915 12.1998 132.558 12.2269 132.096 12.2269V12.6541Z" fill="#1e1e1e"/>
<path d="M158.47 0.447574H145.724L145.535 3.19405H145.976L146.081 2.78717C146.249 2.17684 146.473 1.76995 146.753 1.56651C147.033 1.3495 147.621 1.241 148.517 1.241H151.267V9.84663C151.267 10.3756 151.239 10.796 151.183 11.108C151.141 11.4064 151.05 11.6369 150.91 11.7997C150.77 11.9624 150.574 12.0777 150.322 12.1455C150.07 12.1998 149.714 12.2269 149.252 12.2269V12.6541H154.942V12.2269C154.48 12.2269 154.123 12.1998 153.871 12.1455C153.619 12.0777 153.423 11.9624 153.283 11.7997C153.143 11.6369 153.045 11.4064 152.989 11.108C152.947 10.796 152.926 10.3756 152.926 9.84663V1.241H155.677C156.573 1.241 157.161 1.3495 157.441 1.56651C157.721 1.76995 157.945 2.17684 158.113 2.78717L158.218 3.19405H158.659L158.47 0.447574Z" fill="#1e1e1e"/>
<path d="M166.966 6.5712H165.118V1.20031H166.966C167.834 1.20031 168.492 1.45123 168.94 1.95305C169.402 2.45488 169.633 3.09911 169.633 3.88576C169.633 4.6724 169.402 5.31664 168.94 5.81847C168.492 6.32029 167.834 6.5712 166.966 6.5712ZM167.764 7.3036C168.926 7.18153 169.836 6.80856 170.494 6.18466C171.165 5.56077 171.501 4.79447 171.501 3.88576C171.501 2.89567 171.102 2.07512 170.305 1.4241C169.507 0.773083 168.401 0.447574 166.987 0.447574H161.443V0.874804C161.905 0.874804 162.262 0.908711 162.514 0.976526C162.766 1.03078 162.955 1.13928 163.081 1.30203C163.221 1.45123 163.312 1.67501 163.354 1.9734C163.41 2.27178 163.438 2.69223 163.438 3.23474V9.84663C163.438 10.3891 163.41 10.8096 163.354 11.108C163.312 11.4064 163.221 11.6369 163.081 11.7997C162.955 11.9624 162.766 12.0777 162.514 12.1455C162.262 12.1998 161.905 12.2269 161.443 12.2269V12.6541H167.113V12.2269C166.651 12.2269 166.294 12.1998 166.042 12.1455C165.79 12.0777 165.594 11.9624 165.454 11.7997C165.328 11.6369 165.237 11.4064 165.181 11.108C165.139 10.8096 165.118 10.3891 165.118 9.84663V7.3036H166.105L170.263 12.6541H173.727V12.2269C173.111 12.1591 172.467 11.8946 171.795 11.4335C171.123 10.9724 170.466 10.3756 169.822 9.64319L167.764 7.3036Z" fill="#1e1e1e"/>
<path d="M181.49 7.73083L184.955 2.64476C185.431 1.95305 185.851 1.48513 186.215 1.241C186.593 0.99687 187.188 0.874804 188 0.874804V0.447574H183.086V0.874804C184.122 0.874804 184.64 1.07147 184.64 1.46479C184.64 1.68179 184.5 2.00052 184.22 2.42097L181.154 6.89671L178.131 2.42097C177.879 2.04121 177.753 1.74283 177.753 1.52582C177.753 1.30882 177.872 1.14606 178.11 1.03756C178.348 0.929055 178.733 0.874804 179.265 0.874804V0.447574H173.28V0.874804C174.008 0.874804 174.582 1.00365 175.002 1.26135C175.422 1.50548 175.863 1.96661 176.325 2.64476L179.81 7.87324V9.84663C179.81 10.3891 179.782 10.8096 179.726 11.108C179.684 11.4064 179.593 11.6369 179.453 11.7997C179.327 11.9624 179.139 12.0777 178.887 12.1455C178.635 12.1998 178.278 12.2269 177.816 12.2269V12.6541H183.485V12.2269C183.023 12.2269 182.666 12.1998 182.414 12.1455C182.162 12.0777 181.966 11.9624 181.826 11.7997C181.7 11.6369 181.609 11.4064 181.553 11.108C181.511 10.8096 181.49 10.3891 181.49 9.84663V7.73083Z" fill="#1e1e1e"/>
</g>
</svg>
