<svg width="2589" height="58" fill="none" xmlns="http://www.w3.org/2000/svg"><g clip-path="url(#a)" fill="#3E58E1"><path d="M-121.603 13.29c1.17-.26 2.327-.718 3.503-.72 3.287-.012 6.586.175 10.704.31-1.701 1.176-2.866 1.992-3.985 2.77-2.299-.095-2.95-1.864-5.423-.971-1.408.51-2.557 1.208-1.604 2.252 2.202-.087 4.398-.135 6.564-.263 2.207-.126 4.422-.312 6.836-.472 1.933.997 4.963.778 7.65 1.004.761.065 2.18-.525 2.561-.95.57-.617-.509-1.03-1.682-1.346-3.29-.862-6.47-.429-9.705.101-.581.1-1.165.22-1.876.376.411-1.834 1.795-2.465 4.804-2.525a46.983 46.983 0 0 0 5.083-.41c.496-.064 1.217-.597 1.087-.84-.627-1.35 1.133-1.174 3.37-1.22-.654.932-1.203 1.689-1.81 2.583.957.11 1.738.335 2.354.275 3.908-.409 7.802-.719 11.786-.192.118.024.245-.012.409-.026 5.98-.143 11.952-.226 17.868-.49 2-.094 3.692-.317 5.587.36 1.547.548 2.33.156 2.898-1.335 2.956 1.526 2.307.93 5.405.514 1.278-.157 1.695-.541 1.105-.977-2.333.162-4.421.312-6.51.463l-2.907-.095c-.019-1.054-.145-1.912-2.616-2.231-2.231-.291-2.63.55-3.851 1.484-1.225-1.133-2.202-2-3.212-2.926-2.74.169-3.108 1.09-3.45 2.113-.083.315-.758.81-1.205.814-1.383.035-1.27-.498-1.123-.99.06-.137.116-.254.175-.391.444-.88-.245-1.479-2.102-1.54-2.059-.066-2.32.66-2.309 1.475.025.418-.236.847-.513 1.692-.994-.747-1.51-1.122-2.025-1.516-.748.134-1.456.27-2.204.405-.293-.228-.638-.379-.697-.54-.52-1.546-1.142-1.745-4.124-1.286-1.407.212-2.925.937-4.198-.435a32.115 32.115 0 0 1-1.294 1.468c-.442-.035-.848-.028-.918-.11-1.637-1.682-4.07-1.682-7.348-1.134-3.609.598-7.441.155-11.188-.027-2.535-.142-1.817-1.25-2.388-2.124-2.051-.126-4.182-.255-6.271-.403.008-.06-.027-.1-.019-.16 1.744-.002 3.454-.046 5.192-.009 1.332.044 2.743.11 2.859 1.047.048.24.804.642 1.249.657 4.244.098 8.545.377 12.76-.796 2.868 1.265 6.709.755 10.216.909 3.426.151 6.954-.15 10.66-.268-.032-.36-.092-.818-.11-1.275.207-.033.411-.047.578-.08.62.516 1.2 1.012 1.965 1.653.888-.27 1.803-.438 2.374-.758 2.02-1.146 3.256-1.284 4.815-.22.85.604 1.765.733 3.025.715 1.421-.014 2.88-.006 4.312-.098.532-.043 1.135-.301 1.453-.549 1.041-.8 2.516-.911 4.203-.797.186.722.375 1.423.658 2.326-1.27.098-2.579.175-4.013.287 2.374 1.329 3.924.962 6.004-1.513 2.059.067 4.304.26 6.505.172 2.078-.071 4.417.621 6.55-.462-2.634-.9-5.47-.019-8.878-.607 1.52-.149 2.142-.248 2.793-.266 9.275-.215 18.514-.47 27.818-.603 1.707-.024 4.258-.597 4.982.937.033.06 2.186.031 2.285-.105.74-1.267 2.818-1.04 4.61-1.1 13.688-.468 27.382-.975 41.06-1.364a1903.7 1903.7 0 0 1 30.212-.624c5.526-.078 11.016.1 16.569.123 7.253.038 14.514.016 21.805.075 4.295.02 8.604.241 12.908.202 7.307-.06 14.555.912 21.881.416 9.832 1.055 19.876.25 29.721.91 3.978.268 7.945.616 11.928.845 1.852.1 3.768.023 5.633.025.689.002 1.351-.095 1.992-.035 4.244.397 8.314.887 12.881.4 4.112-.422 8.564-.058 12.886.063 4.121.115 8.255.428 12.375.543 3.354.09 6.685.039 10.052.03 3.33-.031 6.675-.18 10.031-.11 12.213.239 24.47.46 36.665.837 8.841.288 17.604.852 26.432 1.24 5.886.25 11.837.326 17.72.597 11.239.545 22.471 1.15 33.699 1.774 11.632.638 23.267 1.256 34.883 2.012 14.792.959 29.56 1.798 44.478 2.125 10.066.23 20.154.598 30.233.728 9.958.126 19.943.054 29.879.04.528-.003 1.061-.045 1.629-.046 11.836.028 23.697.177 35.509.085 11.692-.096 23.375-.43 35.085-.664 2.969-.062 5.899-.145 8.873-.247 2.118-.07 4.282-.179 6.408-.308 1.717-.103 3.445-.285 5.195-.327 7.648-.188 15.303-.415 22.976-.483 8.892-.087 17.76.003 26.652-.084 20.624-.182 41.205.25 61.762.563 18.048.27 36.102.502 54.123.374 15.546-.109 30.93.67 46.432.878 12.671.155 25.315.21 37.951.324 15.231.119 30.466.198 45.692.357 11.987.113 23.964.305 35.946.457 1.62.013 3.227.125 4.844.158 3.558.076 5.3.689 5.634 2.408.293 1.42-.15 2.896-.185 4.345-.024.774-.137 1.605.375 2.317.649.895.668 1.65-.411 2.43-2.648 1.88-2.05 4.046-2.09 6.13-.035.854.415 1.723.181 2.55-1.003 3.205-.381 6.384.239 9.583.523 2.719.432 5.477.61 8.344-.578.08-1.203.2-1.857.238-7.07.405-14.124.99-21.245 1.174-11.678.295-23.426.508-35.095.445-11.832-.067-23.69-.534-35.54-.76-3.356-.07-6.707.118-10.069.088-6.195-.063-12.377-.225-18.573-.288-3.076-.04-6.176.097-9.255.076-12.679-.096-25.315-.21-37.992-.325-15.876-.14-31.771-.142-47.669.174-8.335.166-16.714.051-25.035.118-6.616.042-13.172.246-19.784.269-8.64.016-17.263-.086-25.851-.148-6.322-.027-12.641-.074-18.966-.082-6.57.005-13.12.168-19.631.036-4.89-.12-9.732 0-14.595-.02-1.499-.008-3.05.06-4.503-.583-1.297-.599-3.262-.762-4.651.206-.18.133-.648.297-.767.273-1.913-.54-4.526.786-6.206-.58-.145-.124-1.83.04-2.511.276-1.491.527-2.578 1.366-4.384.036-.407-.292-2.934.103-4.492.23-.738.056-1.55.367-2.188.287-5.348-.631-10.507-.263-15.707.402-2.253-.73-3.754.473-5.63.551-2.691.111-5.671.252-8.085-.184-4.39-.819-8.86-.746-13.252-.65-1.26.018-2.42.199-3.863.072-1.884-.16-3.907.111-5.867.206-.245.012-.511.182-.713.176-1.52-.15-2.998-.317-4.516-.485-1.437-.166-2.29 1.038-3.989.406-.347-.13-1.453-.047-1.8.12-1.574.843-2.264-.054-2.969-.236-3.122.296-5.915.562-8.746.808-.329.029-.8-.086-1.066-.214-1.51-.824-2.56-.262-3.518.223-1.421-.285-2.694-.763-3.991-.766-1.338-.004-2.659.47-4.409.81-.465-.154-1.318-.44-2.363-.812-.64.237-1.364.492-2.217.802a134.09 134.09 0 0 1-1.936-.679c-.643.257-1.289.534-1.932.791-2.274-.869-2.441-1.132-6.669-.456-3.73.594-6.938.032-10.397-.18-3.017-.178-6.134-.518-8.798.588a61.028 61.028 0 0 0-2-.8c-3.778 1.247-8.028.592-12.129.637-.367.008-.77-.303-1.152-.475-1.535-.646-3.435-.688-4.729-.114-1.55.665-3.122.593-4.863.576-3.077-.04-6.177.097-9.253.056-20.32-.265-40.686-.492-60.99-.876-19.534-.378-39.041-.657-58.55-.617-14.685.037-29.369-.223-44.034-.323-7.495-.046-15.002-.013-22.535-.08-1.58-.011-3.127-.26-4.688-.41-2.202-.211-4.363-.719-6.54.084-.299.11-.789.133-1.152.122l-16.778-.369a594.772 594.772 0 0 0-6.026-.117c-10.483-.143-20.969-.266-31.444-.469-1.415-.026-2.785-.389-4.182-.553-.759-.085-1.707-.274-2.256-.114-2.61.71-5.312.304-7.936.219-6.336-.227-12.62-.531-18.905-.835-1.972-.105-4.099.025-5.601-.858-.226-.127-.858-.247-1.068-.194-2.196.643-4.274.417-6.395-.09-3.563.858-6.785-.2-10.111-.488-.92-.09-1.925-.162-2.791-.052-4.907.595-9.73.28-14.62-.138-2.686-.227-5.493-.16-8.254-.13-2.436.02-4.831.04-7.011-.626-.778-.244-1.871-.558-2.576-.442-3.02.438-5.76-.287-8.632-.34-3.114-.063-6.179-.183-9.288-.284-3.471-.113-6.946-.206-10.413-.36-2.136-.089-4.166-.373-6.138.416-.474.204-1.925-.162-2.883-.272-1.076-.135-2.638-.583-3.111-.38-2.231.9-4.694.523-6.898.331-4.971-.42-9.864-.818-14.935-.506-2.414.16-4.96-.202-7.46-.303-2.218-.092-4.516-.485-6.543.403-.344.147-1.327.214-1.515.109-2.576-1.336-5.883-.57-8.718-.602-13.158-.15-26.35-.045-39.565-.078-4.258 0-8.537-.14-12.83-.18-9.398-.068-18.842-.098-28.233-.225-1.822-.02-3.603-.336-5.482-.537 1.456-1.462 1.456-1.462 6.459-.981l.212-1.563c2.458.418 5.047.165 6.49 1.483.503.474 3.23.106 4.238-.457.487-.302.856-.628 1.577-1.16 2.14.665 4.167 1.267 6.269 1.912 1.485-.488 2.659-1.066 2.984-1.969 2.743.706 3.639.675 8.273-.306-2.977-.475-5.6.036-8.235.327-1.04-.113-2.038-.225-3.117-.34-.038-.319-.116-.64-.175-1.098-1.063.065-2.344-.057-3.028.2-3.334 1.261-6.475.503-9.689-.019-.595-.099-1.262-.26-1.838-.199-2.463.218-4.933.495-7.482.75-.853-.286-1.047-.948-3.025-.715-1.981.253-4.379-.301-6.562-.353-4.648-.112-9.376.37-13.965-.475-2.414.756-4.735-.075-6.982-.247-3.736-.261-7.407-.103-11.048.136-2.21.147-3.843-.066-5.453-.754-.883-.367-2.07-.584-3.281-.922-.786.412-1.483.767-2.354 1.215a196.63 196.63 0 0 1-2.547-.957c-.04-.001-.237-.047-.32-.03-3.708 1.329-7.372-.956-11.105-.045-.46.105-1.542.01-1.878-.2-1.314-.778-2.746-.686-4.333-.34-.251.052-.584.12-.781.074-1.34-.282-2.613-.76-3.978-.865-1.122-.096-2.22 1.12-3.655.04-.296-.208-1.483-.128-2.247-.172-3.572-.276-7.143-.551-10.717-.807a52.638 52.638 0 0 0-3.954-.149c-2.514-.002-5.033.035-7.547.032-.446.006-.99-.171-1.329-.36-1.279-.738-2.773-.787-4.662-.61-2.753.268-3.878-.106-5.065-1.218l-.003.02c.514-.202 1.184-.657 1.539-.585 1.944.321 3.548.453 5.725-.052 1.423-.331 4.26-.02 5.523.537 1.876.816 3.55.732 5.563.54 1.806-.16 3.66-.676 5.14.365.224.147.999.113 1.483.128 2.339.096 4.775-.221 6.985.526.543.177 1.857-.237 2.974-.4 1.098.275 2.39.615 2.861.73 2.414-.458 4.12-.78 5.745-1.105 1.22.577 2.173 1.025 3.201 1.515 1.973-.194 4.125-1.117 5.676.304 3.507-.143 7.224 1.15 10.685-.446 2.148.905 4.231 1.39 7.248.674 1.383-.333 3.463-.126 5.215-.486.668-.137 1.761.177 2.584.382 1.058.273 2.022.642 3.305 1.042 1.75-.937 3.588-.738 5.332.154 1.112-.421 2.013-.789 3.081-1.191.227.126.614.258.636.398.274.963 1.206 1.271 3.049.835 3.811-.89 4.737-.84 7.773.392 3.019-1.034 6.063-1.65 9.535-.345.695.261 2.119.228 3.031.08 3.517-.522 6.879-.492 9.907.501 2.984-.777 5.797-1.48 8.946-.483.39.112 1.041.093 1.534.05 2.215-.186 4.433-.392 6.857-.63.275-.528-.24-.922-1.536-.925-3.69-.001-7.51.351-11.03-.002-2.6-.264-5.571.712-7.991-.578-.603-.338-2.575-.144-3.883-.067-5.186.268-10.435.394-15.349-.441-3.052-.517-5.612-.481-8.335.165-.988-.49-1.863-.915-3.082-1.491-.573.637-.958 1.081-1.437 1.622-.627-.16-1.349-.223-1.766-.435-1.257-.597-2.514-.897-4.368-.679-.824.092-1.809-.118-2.686-.227-.398-.052-.894-.287-1.063-.233-3.065 1.072-5.878-.31-8.817-.168-1.225.06-2.39.28-3.628.438-1.529-1.58-3.362-1.818-6.328-.882-.89.289-2.166.426-3.261.43-2.393.002-4.807-.137-7.593-.228.468-.76.829-1.324 1.24-1.966-.683-.042-1.235-.16-1.41-.066-4.182 1.83-8.523 1.55-13.023.35-.899-.247-2.442-.536-3.036-.337-3.827 1.306-5.701-.424-8.567-1.113-.983-.231-2.845.344-4.374.552-4.433-1.396-4.433-1.396-8.042-1.096-.11-.68-.18-1.357-.339-2.276 1.459.306 2.363.514 3.31.704 3.289-1.522 6.825-1.288 10.107.826 4.79-.936 9.535-.643 14.21.463.864.207 2.113-.03 3.165-.016 3.031.08 6.056.198 9.689.316 2.643-.649 5.948-1.097 9.53-.305.552.117 1.268.22 1.882.18 4.252-.258 7.724.749 11.204 1.697 3.951-1.024 5.019-2.022 3.442-3.245-1.505-1.162-3.16-1.216-6.314-.087-.286-.288-.533-.554-.781-.82-.21-.245-.38-.49-.786-1.079a106.873 106.873 0 0 1-2.064 1.76c-1.306-.539-2.573-1.057-3.995-1.64 1.375-1.166 3.327-1.202 5.563-.95 3.195.362 6.438.666 9.679.99.401.034.807.027 1.179-.02 3.256-.391 6.405-.586 9.767.04 3.084.577 6.443.031 9.621-.084 1.346-.055 2.479-.038 3.838.105 5.512.617 11.113.88 16.749.586 1.429-.072 2.804-.345 4.62-.584 1.922 1.374 5.33.471 8.339 1.007.4-.564.75-1.049 1.189-1.59.877-.489 3.456.231 3.558-1.116-1.464.031-2.92.004-4.355.116-1.351.095-2.72.328-4.373.553-.77-1.496-2.69-2.89-.268-4.3 2.126-.13 4.05-.265 6.298-.39.056.776.138 1.672.21 2.628 1.85.12 1.965-.432 1.825-1.192-.135-.799-.867-1.677.925-2.632.261.466.21.841.595.993.732.282 1.682.452 2.546.66 1.055-1.198 3.383-.427 5.011-.771 1.462-.31 2.035.245 2.272.888 1.992-.63 3.94-1.242 6.23-1.982.496.83.789 1.357 1.217 2.086 1.566-.187 3.504-.124 4.212-.558 2.252-1.357 5.533-.733 8.198-1.242 1.666-.324 3.315.366 3.308 1.617 1.515-.407 2.836-2.073 4.424-.034 1.015-.603 1.723-1.037 2.339-1.394 4.18-.023 8.244.209 12.138-.101 6.192-.513 12.361-.253 18.575-.328.407-.007.926.05 1.185-.06 2.69-1.006 5.043-.412 6.868.183 3.028-.199 5.523-.356 8.058-.512 2.043-.112 2.04-.092 3.501-1.594-3.324-.01-6.395-.09-9.487-.011-2.24.066-4.433.392-6.68.517-1.023.066-2.15.01-3.19-.104-1.88-.18-3.751-.44-4.84.418-3.774-.58-7.106-1.126-10.659-.347-1.504.328-3.054.397-4.656-.053-.665-.18-1.854-.378-2.242-.212-2.564.97-5.086.132-7.635.089-3.846-.046-7.665.008-11.473-.017-1.62-.013-3.27-.106-4.89-.12-4.256-.019-8.476.002-12.736.022-.77-.005-1.553.089-2.331.143-.778.054-1.781.28-2.285.104-2.137-.685-4.166-.374-6.448-.29-4.282.179-8.653-.182-12.981-.264-3.8-.084-7.544-.286-11.376-.132-3.507.144-7.095-.311-10.637-.208-4.236.14-8.147-.921-12.552-.429-2.388.26-5.224-.35-8.311-.609-.281-.625-.625-1.371-1.062-2.339 3.588.455 7.192.195 9.179 1.988 2.225-.563 4.238-1.054 6.214-1.566l-.127.036c.401.331.765.64 1.384 1.158.444-.284.683-.554 1.143-.658.837-.192 1.736-.242 2.608-.392 2.277-.343 2.589-.85 1.222-1.828-.296-.208-.762-.362-1.144-.534l-.129.056Zm34.965 18.425c.056.776.9 1.44 2.382 1.27 2.516-.316 4.909-.913 7.29-1.432.127-.035.006-.337.022-.754-1.268.376-2.196.644-3.084.913-3.666-1.073-3.666-1.073-6.699.06-1.68-1.069-3.216-1.397-4.933-.996-1.548.347-1.995.948-1.459 1.78.754-.174 1.567-.485 1.798-.398 1.9.638 3.235.066 4.683-.443Zm4.978-15.453c-.512-1.308-2.444-.517-3.47-.431-1.644.165-2.785.207-3.415-.827-1.776.538-3.256.987-5.159 1.56 4.729.71 8.236.567 12.133-.359.188.404-.014.993 1.426.841.369-.027.904-.388.802-.53-.371-.846-1.445-.405-2.317-.254Zm-61.04 13.824.129-.056c-.64.238-1.595.405-1.84.715-.342.426-.466 1.038-.035 1.45.285.287 1.672.53 2.377.414 2.193-.325 4.284-.794 6.41-1.221.294-.07.592-.18 1.144-.36l-.25 1.84c1.836-.08 3.389-.168 4.976-.216 1.712-.063 3.467-.145 5.206-.108 3.679.08 7.35.22 10.781.331.482-.56.775-.928 1.257-1.488 1.039.71 1.782 1.21 2.527 1.691 1.402-.173 2.667-.529 3.703-.396 1.117.136 1.971.72 2.816 1.066 1.919-.693 4.933-.495 6.039-1.77-.775-.562-1.55-1.124-2.401-1.728-1.852.198-3.792.453-5.76.607-.697.057-1.657-.034-2.239-.232-3.063-1.033-5.754-.922-8.168.727-.894-.883-1.919-1.095-3.865-1.099-3.975.01-7.929-.437-11.907-.706-3.536-.235-7.075-.45-10.935-.694a5.34 5.34 0 0 0 .035 1.233Zm84.135-13.091c2.592.62 4.36-.156 6.24-.273 2.208-.127 4.751-.64 6.649-.28 4.55.823 9.274-.513 13.674.525.197.046.571-.021.743-.095 2.196-.942 4.95-.912 8.343-.82-2.395-.873-4.091-1.525-6.102-2.246-.538.38-1.383.928-2.19 1.498-1.252-.04-2.455-.14-3.636-.098-2.237.046-4.347.056-6.656-.257-1.951-.263-4.349.374-6.57.6-.37.048-.818.053-1.173-.018-3.714-.717-6.322.27-9.322 1.464Zm-1.602-1.046c-1.028-.192-1.91-.26-2.447-.497-2.4-1.13-4.69-.987-7.207-.076-2.304.839-4.88 1.292-7.864.28.17.542.377 1.105.931 1.203 1.349.223 3.015.495 4.218.296 2.823-.484 5.401-.36 8.139.087.594.099 1.289.062 1.813.079.792-.451 1.494-.846 2.417-1.372Zm16.25-4.397c.645.32 1.294.619 1.787.873 1.81-.2 3.375-.367 5.39-.58-.315-.665.573-1.53-2.36-1.427-.896.03-1.933-.699-2.805-1.145-.834-.424-1.5-.903-2.468-1.53-.73.89-1.211 1.45-1.7 2.07l3.511.115c-.53.618-.92 1.102-1.356 1.624Zm30.969-1.712c.66 1.412 3.028.993 4.618 1.223 1.034.153 2.31.016 2.089-.746-.157-.64-1.104-.83-2.331-.751-1.349.075-2.74.168-4.376.274Zm-9.985.668c-.006.337-.215.688.038.915.253.227.915.427 1.477.465.32.03 1.007-.245 1.112-.42.433-.8-.17-1.436-1.75-1.746-1.343-.262-2.667-.365-3.273.51-.102.155.114.36.208.562.702-.096 1.321-.175 2.188-.286Zm-43.455 21.39c1.555.488 2.255.71 2.996.932.966-.842 4.187-.38 4.496-2.058-2.4.359-4.43.67-7.492 1.126Zm90.962-12.61c.024.12.089.242.11.381 1.804.159 3.602.356 5.416.435.525.017 1.106-.38 1.622-.602-.578-.218-1.098-.573-1.74-.614-1.37-.064-2.797-.011-4.186.063-.406.006-.8.212-1.222.337Zm-73.607 5.448c2.026.9 3.892.604 5.85.508-1.289-1.552-1.289-1.551-5.85-.508ZM-1.97 14.39c-4.656-.35-5.552-.022-4.578 1.46 1.356-.433 2.586-.83 4.578-1.46Zm-28.55-4.447c-.227-.127-.45-.273-.676-.4-1.33.235-2.829.226-3.889.867 1.174.316 2.153.567 3.327.883.334-.367.764-.85 1.238-1.35Zm15.975-2.38.065-.475c-2.383-.971-2.383-.971-4.04.484 1.499.01 2.759-.009 3.975-.009Zm-40.957 21.511c-.275-.962-.437-1.564-.72-2.467-1.235.735-2.074 1.244-3.22 1.922 1.471.207 2.306.333 3.94.546Zm-17.14-1.591c1.487 1.3 2.676 1.497 4.433.502-1.2-.119-2.438-.259-4.432-.502Zm109.185-8.838c-1.187.379-1.903.574-2.837.881 1.071.473 1.876.817 3.332 1.44-.191-.98-.323-1.5-.495-2.32Zm-14.26.49c-1.748.041-3.172.075-5.164.109 2.724 1.142 2.969 1.13 5.165-.11Zm479.78 10.774c-2.708-.366-2.708-.366-3.719.813 1.588-.346 2.672-.569 3.719-.813ZM6.472 18.221c.127.859.18 1.357.237 1.836.614-.04 1.496.029 1.76-.121.896-.627.186-1.067-1.997-1.715Zm5.154 2.056c1.042-.503 1.693-.82 2.516-1.21-3.259-.483-3.262-.464-2.516 1.21Zm-99.08 8.193 3.431.112c-1.297-1.195-1.297-1.195-3.431-.112Zm38.137-18.961c.353.09.705.182 1.1.254.867-.409 1.933-.791.805-2.04a82.786 82.786 0 0 0-1.905 1.786Zm526.132 19.399a2.773 2.773 0 0 0-.038.574c1.061.552 1.973.402 3.48-.542-1.62-.013-2.551-.023-3.442-.032ZM-11.443 14.28c-1.114.142-2.18.227-1.754.976.064.121.65.28.936.268 1.518-.129 1.38-.61.818-1.244Zm-7.635.685c2.554.898 2.554.897 4.056-.007-1.378-.005-2.433 0-4.056.007Zm-41.38 9.994c2 .503 2.72.268 2.427-.854a211.44 211.44 0 0 1-2.427.854Zm3.027 18.913c.218-.112.436-.224.694-.335-.724-.341-1.405-.701-2.32-1.129-1.238 1.35.302 1.361 1.626 1.464Zm-18.774-5.678a8.892 8.892 0 0 0-.858-.247c-.894.309-2.299.502-.993 1.637.77-.591 1.31-.99 1.851-1.39Zm10.052-14.295c.75 1.038.71 1.037 1.908 1.175.119.024.345-.148.864-.389-.821-.225-1.561-.448-2.772-.785Zm49.596-13.76c-.224.152-.407.305-.63.457.815.265 1.59.529 2.406.794.18-.134.404-.285.584-.418a40.75 40.75 0 0 0-2.36-.832Zm29.084 5.002c-.017-.18-.076-.34-.092-.52-.775.034-1.593.087-2.368.122.018.16.037.319.059.458a97.464 97.464 0 0 0 2.4-.06Zm-50.28-6.288 2.746.09c-.536-1.13-1.588-.847-2.745-.09ZM-70.368 43.29c-.304.15-.605.279-.91.428.65.299 1.3.578 1.99.879l.654-.336-1.734-.97Zm-6.395-15.307c.016.18.072.36.088.54.692-.018 1.427-.054 2.119-.07-.057-.181-.095-.5-.216-.504-.646-.021-1.34.015-1.991.034Zm626.424 1.69c-.143-.144-.248-.267-.391-.41-.672.176-1.383.332-2.056.509.068.101.178.184.245.286.748-.135 1.494-.25 2.202-.386Zm-628.012-1.642c-.35-.111-.7-.222-1.047-.353-.412.345-.867.707-1.278 1.051.271.089.543.177.775.264.49-.322 1.02-.642 1.55-.962Zm27.547 3.182c-.611-.278-.907-.486-1.306-.539-.199-.026-.84.211-.81.291.051.22.299.487.611.577.237.047.791-.153 1.505-.329Zm8.77-.091c1.23.497 1.605.728 1.772.693.417-.085.73-.294 1.074-.442-.305-.149-.593-.416-.913-.447-.482-.035-1.028.106-1.932.196Zm84.006-11.248c-.005-.556.003-.913-.016-1.37-2.417.477-2.061.846.016 1.37ZM502.6 33.125c.347-.167.773-.312.746-.412-.022-.14-.401-.331-.681-.36-.199-.026-.673.177-.689.295-.019.139.328.27.624.478Zm-549.718-4.572c-.385-.151-.646-.319-.926-.348-.32-.03-.662.098-.993.147.299.188.514.394.902.526.118.023.552-.181 1.017-.325Zm-4.75-19.068a3.652 3.652 0 0 1-.403-.311c-.592.18-1.147.38-1.739.559.11.083.218.186.37.27a62.33 62.33 0 0 1 1.773-.518Zm2.69 22.597c-.219.112-.399.245-.617.357.541.197 1.085.373 1.626.57.134-.095.31-.189.444-.284a15.744 15.744 0 0 0-1.454-.643Zm-3.438-4.245c-.35.188-.813.312-.789.432.022.14.396.37.678.38.243.007.754-.175.773-.313.059-.137-.366-.29-.663-.498Zm5.942-1.355c-.53.32-.835.469-.797.49.226.127.495.235.765.343.134-.095.43-.185.398-.245-.057-.181-.234-.366-.366-.588Zm26.662 5.816c.226-.172.654-.337.581-.399-.143-.143-.487-.294-.81-.304-.202-.007-.471.183-.73.294.267.128.536.236.959.409Zm1.247-4.708c.557-.518.824-.688.845-.846.016-.12-.33-.25-.557-.376-.212.072-.506.142-.56.24-.018.138.081.3.272.982ZM16.231 9.063a10.4 10.4 0 0 0 .7-.374c-.197-.047-.382-.172-.547-.157-.204.013-.463.124-.557.22-.048.058.221.166.404.311Zm6.894 5.966c.377-.087.587-.14.797-.192-.226-.127-.369-.27-.643-.34-.119-.023-.418.087-.668.138.186.126.328.27.514.394Zm394.239 31.529c-.183-.145-.29-.248-.438-.352-.296.09-.59.16-.846.25.108.103.286.288.369.27.326-.008.622-.098.915-.168ZM.975 15.102C.908 15 .89 14.84.733 14.796c-.116-.044-.41.026-.614.04l.307.427a2.23 2.23 0 0 0 .55-.161ZM-.404 9.435c.334-.069.544-.122.753-.175-.185-.125-.325-.288-.554-.395-.078-.023-.581.1-.544.121.06.161.202.305.345.449ZM448.619 46.92c-.194-.066-.347-.13-.584-.178-.078-.022-.21.053-.296.09.111.083.218.186.369.27.169-.054.339-.108.511-.182Zm-458.85-15.894c-.26.13-.433.205-.565.28.192.085.337.21.576.237.16.025.415-.066.622-.099-.226-.126-.409-.271-.632-.418Zm468.524-2.187c.14.164.275.367.355.37.366-.009.703-.097 1.034-.146l-.428-.43c-.291.05-.627.138-.961.206Zm-472.839-1.57c.108.104.13.244.326.29.119.023.374-.068.584-.12-.145-.124-.288-.268-.433-.392a5.048 5.048 0 0 1-.477.223Zm-24.714.745c.03.08.056.18.086.26.242.009.557.079.724.044.253-.071.396-.225.573-.339-.409.027-.896.03-1.383.035Zm563.335 1.34c-.788-.164-1.1-.254-1.423-.264-.202-.007-.579.08-.587.14-.019.138.121.301.224.444.29-.05.581-.1 1.786-.32Zm-617.15-4.585c.299-.11.635-.198.856-.33.043-.018-.285-.287-.329-.269-.333.069-.63.159-.966.247.148.104.256.207.44.352Zm31.278 3.781c.212-.072.344-.147.513-.201-.15-.085-.255-.207-.417-.213-.161-.005-.42.106-.47.184.032.06.263.147.373.23Z"/><path d="M408.369 11.347c1.183-.263 2.352-.727 3.541-.728 3.32-.012 6.654.177 10.814.313-1.718 1.188-2.895 2.013-4.026 2.799-2.323-.096-2.981-1.884-5.48-.982-1.422.516-2.583 1.22-1.62 2.276 2.224-.088 4.443-.136 6.632-.266 2.23-.128 4.468-.316 6.907-.477 1.952 1.007 5.014.786 7.728 1.015.77.065 2.203-.53 2.589-.96.576-.623-.515-1.04-1.7-1.36-3.323-.87-6.537-.434-9.806.102-.587.101-1.177.223-1.895.38.416-1.853 1.813-2.49 4.853-2.552a47.482 47.482 0 0 0 5.137-.414c.5-.064 1.229-.603 1.098-.848-.634-1.365 1.145-1.187 3.404-1.234-.66.942-1.215 1.707-1.829 2.61.968.112 1.757.339 2.379.279 3.948-.413 7.883-.727 11.908-.194.119.024.247-.012.413-.027 6.042-.144 12.076-.228 18.053-.495 2.02-.095 3.73-.32 5.645.364 1.564.553 2.355.158 2.928-1.35 2.986 1.543 2.331.94 5.461.52 1.291-.159 1.712-.546 1.117-.987-2.358.164-4.468.316-6.578.468l-2.937-.096c-.019-1.064-.147-1.932-2.643-2.254-2.255-.294-2.657.556-3.891 1.5-1.238-1.145-2.225-2.02-3.245-2.957-2.768.17-3.14 1.102-3.485 2.135-.085.318-.767.818-1.218.823-1.398.035-1.284-.504-1.135-1 .06-.14.117-.258.177-.396.449-.889-.248-1.494-2.124-1.555-2.08-.068-2.344.666-2.333 1.49.025.422-.239.855-.519 1.71-1.003-.756-1.525-1.135-2.045-1.533-.756.136-1.471.273-2.227.41-.296-.231-.644-.383-.704-.546-.525-1.562-1.154-1.764-4.166-1.3-1.422.215-2.956.948-4.242-.44a33.061 33.061 0 0 1-1.308 1.484c-.446-.035-.857-.028-.927-.11-1.654-1.7-4.112-1.7-7.424-1.146-3.646.604-7.519.156-11.304-.027-2.561-.144-1.836-1.265-2.412-2.146-2.072-.128-4.226-.259-6.336-.408.008-.06-.027-.101-.019-.16 1.762-.004 3.488-.048 5.245-.01 1.346.043 2.771.11 2.888 1.057.049.242.813.649 1.262.663 4.288.1 8.634.382 12.892-.804 2.899 1.28 6.779.763 10.322.919 3.462.153 7.027-.152 10.771-.271-.033-.363-.093-.826-.112-1.288.209-.034.416-.047.585-.082.625.523 1.213 1.023 1.985 1.67.897-.271 1.822-.442 2.398-.764 2.042-1.158 3.29-1.298 4.865-.223.859.61 1.784.74 3.056.722 1.436-.013 2.91-.005 4.357-.099.538-.042 1.147-.304 1.468-.554 1.052-.809 2.542-.92 4.247-.805.188.729.378 1.438.664 2.35-1.283.099-2.605.176-4.054.29 2.398 1.342 3.965.972 6.066-1.529 2.08.068 4.348.262 6.572.174 2.1-.072 4.463.627 6.619-.467-2.663-.91-5.528-.02-8.971-.613 1.536-.15 2.164-.25 2.823-.27 9.37-.216 18.705-.474 28.105-.609 1.724-.024 4.302-.602 5.034.947.032.062 2.208.032 2.308-.105.748-1.28 2.847-1.051 4.658-1.113 13.83-.472 27.665-.984 41.484-1.377 10.159-.291 20.348-.5 30.526-.63 5.582-.08 11.13.101 16.739.124 7.329.038 14.665.016 22.031.076 4.34.02 8.694.243 13.042.204 7.383-.06 14.706.921 22.107.42 9.934 1.066 20.082.253 30.029.918 4.019.272 8.027.624 12.052.855 1.87.101 3.806.024 5.691.025.696.003 1.365-.096 2.012-.035 4.288.401 8.4.896 13.014.405 4.155-.427 8.653-.06 13.02.063 4.163.115 8.34.432 12.503.548 3.388.09 6.755.04 10.156.03 3.364-.03 6.744-.182 10.135-.111 12.34.242 24.723.465 37.044.846 8.933.292 17.787.861 26.706 1.252 5.947.254 11.959.33 17.903.604a4815.53 4815.53 0 0 1 34.048 1.793c11.753.644 23.508 1.268 35.244 2.032 14.945.97 29.866 1.817 44.939 2.148 10.169.23 20.361.603 30.547.735 10.06.127 20.15.054 30.19.04.53-.002 1.07-.045 1.64-.046 11.96.028 23.94.178 35.88.086 11.81-.097 23.62-.435 35.45-.671 3-.063 5.96-.147 8.96-.25 2.14-.07 4.33-.18 6.48-.31 1.73-.105 3.48-.289 5.24-.331 7.73-.19 15.47-.42 23.22-.488 8.98-.088 17.94.003 26.93-.086 20.83-.183 41.63.254 62.4.57 18.23.273 36.47.507 54.68.378 15.71-.11 31.25.677 46.91.887 12.8.156 25.58.211 38.35.327 15.38.12 30.78.2 46.16.36 12.11.114 24.21.308 36.32.462 1.64.013 3.26.127 4.89.16 3.6.077 5.36.696 5.7 2.433.29 1.435-.16 2.926-.19 4.39-.03.782-.14 1.621.38 2.34.65.905.67 1.669-.42 2.456-2.67 1.9-2.07 4.088-2.11 6.194-.03.862.42 1.74.18 2.575-1.01 3.24-.38 6.45.24 9.683.53 2.747.44 5.534.62 8.43-.58.082-1.21.202-1.87.24-7.15.41-14.27 1-21.47 1.187-11.8.298-23.67.513-35.46.45-11.95-.069-23.93-.54-35.91-.77-3.39-.07-6.77.121-10.17.09-6.26-.063-12.5-.227-18.76-.29-3.11-.041-6.24.098-9.36.076-12.81-.096-25.57-.211-38.38-.328-16.04-.141-32.1-.143-48.16.176-8.42.167-16.89.052-25.3.119-6.68.043-13.3.248-19.99.272-8.72.016-17.44-.087-26.11-.15-6.39-.027-12.78-.075-19.17-.082-6.63.004-13.25.17-19.83.036-4.94-.121-9.83 0-14.75-.02-1.51-.009-3.08.06-4.55-.59-1.31-.604-3.29-.77-4.69.209-.19.134-.66.3-.78.275-1.93-.544-4.57.795-6.27-.585-.15-.126-1.85.04-2.54.278-1.5.533-2.6 1.38-4.43.037-.41-.295-2.96.103-4.53.233-.75.056-1.57.37-2.22.289-5.4-.638-10.61-.266-15.86.406-2.28-.737-3.8.478-5.69.557-2.72.112-5.73.255-8.17-.186-4.44-.827-8.95-.753-13.39-.657-1.27.019-2.45.201-3.9.073-1.91-.162-3.95.112-5.93.209-.25.011-.52.183-.72.177-1.54-.15-3.03-.32-4.56-.49-1.46-.168-2.32 1.048-4.03.41-.36-.132-1.47-.048-1.82.122-1.59.85-2.29-.055-3-.239-3.16.299-5.98.568-8.84.816-.33.03-.81-.086-1.08-.216-1.52-.832-2.58-.264-3.55.226-1.44-.288-2.72-.772-4.03-.774-1.36-.004-2.69.474-4.46.818-.47-.156-1.33-.445-2.39-.82-.64.24-1.37.497-2.24.81-.58-.2-1.21-.421-1.95-.686-.65.26-1.3.54-1.95.8-2.3-.878-2.47-1.145-6.742-.461-3.768.6-7.01.032-10.504-.182-3.048-.18-6.197-.523-8.889.593a62.538 62.538 0 0 0-2.021-.808c-3.817 1.26-8.111.598-12.255.644-.37.008-.778-.306-1.164-.48-1.55-.652-3.47-.695-4.778-.115-1.566.671-3.154.6-4.913.582-3.108-.04-6.241.098-9.349.057-20.53-.268-41.106-.498-61.62-.885-19.736-.383-39.445-.664-59.157-.624-14.836.038-29.672-.225-44.489-.327-7.573-.046-15.157-.012-22.768-.08-1.596-.012-3.16-.263-4.737-.415-2.224-.213-4.408-.726-6.608.086-.302.11-.796.134-1.164.122l-16.951-.372a601.344 601.344 0 0 0-6.089-.118c-10.591-.145-21.185-.27-31.768-.474-1.431-.027-2.815-.393-4.226-.56-.767-.084-1.724-.276-2.279-.114-2.637.717-5.368.307-8.019.22-6.401-.228-12.75-.536-19.1-.843-1.993-.105-4.141.026-5.659-.867-.228-.128-.867-.25-1.079-.196-2.219.65-4.318.422-6.461-.09-3.6.866-6.855-.203-10.216-.494-.93-.09-1.945-.163-2.82-.051-4.957.6-9.83.281-14.771-.14-2.714-.23-5.55-.162-8.34-.132-2.461.02-4.881.041-7.084-.633-.786-.246-1.89-.563-2.602-.446-3.051.443-5.819-.29-8.721-.344-3.146-.063-6.243-.184-9.384-.286-3.508-.114-7.018-.209-10.52-.363-2.16-.09-4.21-.378-6.203.42-.478.205-1.944-.164-2.912-.276-1.088-.136-2.665-.588-3.144-.383-2.254.91-4.742.528-6.969.334-5.022-.424-9.966-.826-15.089-.511-2.439.16-5.012-.204-7.538-.307-2.24-.093-4.563-.49-6.61.407-.348.15-1.341.217-1.531.11-2.603-1.348-5.944-.574-8.808-.607-13.294-.153-26.624-.045-39.975-.08-4.302 0-8.625-.14-12.963-.181-9.495-.069-19.037-.099-28.524-.228-1.841-.02-3.641-.34-5.539-.541 1.47-1.478 1.47-1.478 6.526-.992l.214-1.579c2.483.422 5.099.166 6.556 1.499.509.478 3.263.106 4.283-.463.492-.305.865-.634 1.593-1.172 2.162.672 4.21 1.281 6.334 1.932 1.501-.493 2.686-1.076 3.015-1.989 2.771.713 3.676.682 8.359-.31-3.008-.479-5.659.037-8.321.331-1.05-.114-2.059-.227-3.149-.343-.038-.322-.117-.646-.177-1.11-1.074.066-2.368-.057-3.059.202-3.369 1.275-6.542.509-9.789-.019-.601-.1-1.276-.262-1.858-.2-2.488.22-4.984.5-7.559.756-.862-.289-1.058-.958-3.056-.722-2.002.256-4.425-.304-6.63-.356-4.696-.113-9.474.373-14.11-.48-2.439.763-4.783-.076-7.054-.25-3.774-.264-7.483-.104-11.162.138-2.233.148-3.883-.067-5.509-.762-.892-.37-2.092-.59-3.315-.931-.794.416-1.498.774-2.379 1.227-.898-.33-1.716-.638-2.573-.967-.041-.002-.239-.048-.324-.03-3.746 1.342-7.448-.966-11.219-.045-.465.105-1.558.009-1.898-.203-1.327-.786-2.774-.693-4.378-.343-.253.052-.59.121-.789.074-1.354-.285-2.64-.768-4.019-.873-1.134-.097-2.243 1.13-3.693.04-.299-.21-1.498-.13-2.27-.175-3.609-.278-7.217-.556-10.828-.814a53.18 53.18 0 0 0-3.995-.15c-2.54-.003-5.085.034-7.625.032-.451.005-1-.173-1.343-.365-1.292-.745-2.801-.794-4.71-.615-2.782.27-3.918-.108-5.118-1.231l-.002.02c.519-.204 1.196-.663 1.555-.591 1.963.324 3.584.457 5.784-.053 1.438-.334 4.304-.02 5.58.543 1.895.825 3.586.74 5.62.545 1.825-.161 3.698-.682 5.194.37.226.148 1.009.113 1.498.13 2.363.096 4.824-.225 7.057.53.549.179 1.876-.24 3.005-.404 1.109.278 2.414.621 2.89.737 2.439-.462 4.163-.788 5.806-1.115 1.232.582 2.194 1.035 3.233 1.53 1.993-.196 4.168-1.129 5.735.307 3.543-.145 7.299 1.162 10.795-.45 2.17.913 4.275 1.404 7.323.68 1.398-.336 3.5-.127 5.27-.49.674-.14 1.778.178 2.61.386 1.069.275 2.043.648 3.34 1.052 1.767-.946 3.624-.745 5.387.155 1.123-.425 2.034-.797 3.113-1.203.228.128.62.261.642.402.277.973 1.218 1.285 3.081.844 3.85-.898 4.785-.848 7.853.396 3.051-1.044 6.126-1.667 9.634-.348.702.264 2.14.23 3.062.08 3.554-.527 6.95-.496 10.01.507 3.015-.785 5.856-1.495 9.038-.489.394.114 1.052.095 1.55.051 2.238-.188 4.479-.396 6.928-.637.278-.533-.242-.931-1.552-.934-3.728-.001-7.587.355-11.144-.002-2.627-.266-5.628.72-8.073-.584-.609-.341-2.603-.145-3.924-.068-5.24.27-10.542.399-15.508-.446-3.084-.522-5.67-.486-8.421.167-.998-.494-1.882-.924-3.114-1.506-.579.643-.968 1.092-1.452 1.639-.633-.161-1.362-.225-1.784-.44-1.27-.603-2.54-.906-4.413-.686-.832.093-1.827-.12-2.714-.229-.402-.053-.903-.29-1.074-.235-3.097 1.083-5.939-.315-8.908-.17-1.238.06-2.415.282-3.666.442-1.545-1.596-3.397-1.837-6.393-.89-.9.291-2.189.43-3.295.434-2.418.001-4.857-.139-7.671-.23.473-.768.837-1.338 1.253-1.987-.691-.043-1.248-.16-1.425-.066-4.225 1.85-8.612 1.566-13.158.354-.909-.25-2.467-.543-3.068-.341-3.866 1.319-5.759-.429-8.655-1.126-.993-.233-2.874.348-4.419.559-4.479-1.41-4.479-1.41-8.125-1.108-.112-.686-.183-1.37-.343-2.3 1.474.31 2.387.52 3.344.712 3.323-1.538 6.896-1.3 10.211.834 4.84-.946 9.634-.649 14.358.469.873.209 2.134-.031 3.198-.017 3.062.08 6.118.2 9.789.32 2.67-.656 6.009-1.11 9.629-.309.557.119 1.28.223 1.9.183 4.297-.262 7.805.756 11.321 1.713 3.991-1.034 5.071-2.042 3.477-3.278-1.52-1.174-3.193-1.228-6.379-.088-.289-.29-.539-.56-.789-.829-.212-.247-.384-.494-.794-1.09-1.023.89-1.485 1.277-2.086 1.78-1.319-.546-2.599-1.069-4.035-1.658 1.389-1.179 3.36-1.215 5.62-.96 3.228.366 6.505.673 9.779 1 .405.034.815.027 1.191-.02 3.29-.395 6.471-.593 9.868.04 3.116.583 6.509.032 9.721-.084 1.359-.056 2.504-.04 3.877.106 5.57.623 11.228.888 16.922.592 1.444-.074 2.834-.35 4.669-.59 1.942 1.387 5.384.476 8.424 1.017.406-.57.759-1.06 1.202-1.607.886-.493 3.492.234 3.595-1.127-1.48.032-2.951.004-4.4.117-1.365.096-2.749.332-4.419.559-.778-1.511-2.717-2.92-.27-4.345 2.148-.13 4.092-.268 6.363-.395.057.785.139 1.691.213 2.657 1.868.121 1.985-.437 1.843-1.205-.136-.807-.876-1.694.935-2.659.264.47.212.85.601 1.003.74.285 1.7.457 2.572.666 1.066-1.21 3.418-.43 5.063-.778 1.477-.313 2.056.248 2.296.898 2.012-.637 3.98-1.255 6.294-2.003.501.84.797 1.371 1.23 2.108 1.582-.19 3.54-.126 4.255-.564 2.276-1.371 5.591-.741 8.283-1.256 1.683-.326 3.35.37 3.342 1.635 1.531-.412 2.866-2.095 4.47-.035 1.025-.609 1.74-1.047 2.363-1.408 4.223-.023 8.329.21 12.264-.102 6.256-.519 12.489-.255 18.768-.332.41-.006.935.05 1.196-.061 2.719-1.015 5.096-.416 6.94.186 3.059-.201 5.579-.36 8.141-.517 2.064-.114 2.061-.094 3.537-1.611-3.358-.01-6.461-.09-9.585-.012-2.263.067-4.479.396-6.749.523-1.033.067-2.173.01-3.222-.105-1.901-.183-3.791-.445-4.892.422-3.813-.586-7.179-1.137-10.768-.35-1.52.331-3.087.4-4.705-.054-.671-.182-1.873-.382-2.265-.214-2.591.98-5.139.133-7.714.09-3.886-.047-7.745.008-11.592-.017-1.637-.013-3.304-.108-4.941-.121-4.299-.02-8.563.002-12.867.022-.778-.005-1.569.09-2.355.144-.786.055-1.8.283-2.309.106-2.159-.693-4.209-.379-6.515-.293-4.326.18-8.743-.185-13.115-.267-3.84-.085-7.622-.289-11.494-.134-3.543.145-7.168-.314-10.747-.21-4.28.142-8.231-.93-12.682-.433-2.412.262-5.278-.353-8.397-.615-.283-.632-.631-1.386-1.072-2.364 3.625.46 7.266.197 9.273 2.009 2.248-.57 4.282-1.065 6.278-1.582l-.128.036c.406.334.773.647 1.398 1.17.449-.287.691-.56 1.156-.665.846-.194 1.754-.244 2.635-.396 2.3-.347 2.615-.858 1.234-1.847-.299-.21-.77-.366-1.156-.54l-.131.057Zm35.328 18.615c.057.784.908 1.454 2.406 1.282 2.543-.318 4.96-.922 7.366-1.445.128-.037.006-.342.022-.763-1.281.38-2.219.65-3.116.922-3.704-1.084-3.704-1.084-6.768.06-1.697-1.078-3.25-1.41-4.985-1.005-1.563.35-2.014.958-1.473 1.799.761-.176 1.582-.49 1.816-.403 1.92.645 3.269.067 4.732-.447Zm5.029-15.613c-.517-1.322-2.469-.523-3.505-.436-1.661.167-2.814.21-3.451-.835-1.795.544-3.29.997-5.212 1.576 4.777.718 8.321.573 12.258-.363.19.408-.014 1.003 1.441.85.373-.028.914-.392.81-.536-.375-.855-1.46-.408-2.341-.256Zm-61.671 13.966.13-.056c-.647.24-1.612.41-1.859.723-.346.43-.471 1.048-.035 1.464.288.29 1.688.537 2.401.42 2.216-.33 4.329-.803 6.477-1.235.296-.07.598-.18 1.155-.363l-.252 1.858c1.854-.08 3.423-.17 5.028-.218 1.729-.064 3.502-.146 5.259-.109 3.717.081 7.426.222 10.893.335.486-.566.783-.938 1.269-1.504a118.3 118.3 0 0 0 2.554 1.71c1.417-.175 2.695-.535 3.742-.4 1.128.136 1.99.726 2.844 1.075 1.939-.7 4.984-.5 6.102-1.788-.784-.567-1.567-1.135-2.426-1.745-1.871.2-3.832.457-5.819.613-.705.058-1.675-.034-2.263-.234-3.094-1.044-5.814-.932-8.252.735-.903-.893-1.939-1.107-3.905-1.111-4.017.01-8.011-.442-12.03-.714-3.573-.237-7.149-.454-11.049-.701a5.37 5.37 0 0 0 .036 1.245ZM472.06 15.09c2.619.627 4.405-.157 6.306-.276 2.229-.128 4.799-.646 6.716-.283 4.598.833 9.37-.517 13.816.531.199.047.577-.021.751-.096 2.219-.951 5-.92 8.429-.83-2.42-.88-4.133-1.539-6.165-2.268-.543.384-1.397.938-2.213 1.514-1.264-.041-2.48-.141-3.673-.1-2.26.047-4.392.058-6.725-.26-1.972-.264-4.394.38-6.638.607-.375.048-.826.054-1.185-.018-3.753-.725-6.388.273-9.419 1.48Zm-1.618-1.056c-1.039-.195-1.931-.264-2.472-.502-2.426-1.143-4.74-.998-7.282-.077-2.328.847-4.93 1.304-7.946.283.172.547.381 1.116.941 1.215 1.363.225 3.046.5 4.261.3 2.853-.49 5.458-.365 8.223.087.601.1 1.303.062 1.833.08.799-.456 1.509-.855 2.442-1.386Zm16.417-4.443c.653.323 1.308.625 1.806.882 1.83-.201 3.41-.37 5.446-.585-.318-.673.579-1.547-2.385-1.443-.905.03-1.952-.706-2.833-1.156-.843-.429-1.515-.912-2.494-1.547-.737.9-1.224 1.466-1.718 2.092l3.548.116c-.535.625-.929 1.114-1.37 1.641Zm31.29-1.73c.666 1.427 3.059 1.003 4.666 1.237 1.045.154 2.333.015 2.11-.755-.158-.647-1.115-.839-2.355-.759-1.362.076-2.768.17-4.421.277Zm-10.088.675c-.006.341-.218.696.038.925.256.229.925.431 1.493.47.324.03 1.017-.248 1.123-.425.437-.809-.172-1.45-1.768-1.764-1.357-.265-2.695-.369-3.307.514-.103.158.115.366.21.57.71-.098 1.335-.178 2.211-.29Zm-43.905 21.612c1.572.493 2.279.716 3.027.942.976-.852 4.231-.384 4.543-2.08-2.425.362-4.476.677-7.57 1.138Zm91.904-12.74c.024.12.089.243.111.385 1.822.16 3.639.359 5.471.439.531.017 1.118-.385 1.64-.609-.585-.22-1.11-.578-1.759-.62-1.385-.065-2.826-.011-4.229.063-.41.007-.807.215-1.234.341Zm-74.369 5.503c2.047.91 3.932.61 5.911.514-1.303-1.568-1.303-1.568-5.911-.514Zm47.551-10.453c-4.705-.354-5.61-.022-4.625 1.475 1.37-.437 2.613-.838 4.625-1.475Zm-28.847-4.493c-.228-.128-.454-.276-.683-.404-1.343.238-2.857.228-3.929.876 1.186.32 2.176.573 3.362.892.337-.37.772-.858 1.25-1.364Zm16.141-2.404.065-.48c-2.407-.982-2.407-.982-4.081.49 1.514.008 2.787-.01 4.016-.01Zm-41.381 21.734c-.278-.973-.441-1.58-.727-2.493-1.248.742-2.096 1.257-3.255 1.942 1.488.209 2.331.337 3.982.55Zm-17.317-1.608c1.502 1.313 2.703 1.513 4.479.507-1.213-.12-2.464-.261-4.479-.508Zm110.314-8.93c-1.199.383-1.922.58-2.866.891 1.082.477 1.896.825 3.367 1.455-.193-.99-.327-1.516-.501-2.345Zm-14.406.495c-1.768.042-3.206.076-5.218.11 2.752 1.154 2.999 1.142 5.218-.11Zm484.744 10.886c-2.74-.37-2.74-.37-3.76.822 1.61-.35 2.7-.575 3.76-.822Zm-500.72-11.81c.128.868.183 1.371.24 1.855.62-.04 1.512.03 1.778-.123.905-.633.187-1.078-2.018-1.732Zm5.208 2.077c1.052-.508 1.71-.827 2.542-1.222-3.293-.488-3.296-.469-2.542 1.222Zm-100.106 8.278 3.467.113c-1.311-1.207-1.311-1.207-3.467-.113Zm38.532-19.157c.356.092.712.183 1.112.257.876-.413 1.952-.8.813-2.062a84.54 84.54 0 0 0-1.925 1.805Zm531.576 19.6c-.03.2-.05.379-.04.58 1.07.557 2 .406 3.52-.548-1.64-.013-2.58-.023-3.48-.033Zm-493.31-14.78c-1.126.144-2.203.23-1.773.986.066.123.658.282.947.272 1.533-.131 1.394-.617.826-1.258Zm-7.714.692c2.58.907 2.58.907 4.098-.007-1.393-.005-2.459 0-4.098.007Zm-41.809 10.098c2.021.508 2.75.27 2.453-.863-1.077.386-1.765.625-2.453.863Zm3.059 19.109c.22-.114.44-.227.701-.339-.731-.345-1.419-.709-2.344-1.14-1.25 1.364.305 1.375 1.643 1.479Zm-18.968-5.737a8.933 8.933 0 0 0-.868-.25c-.902.312-2.322.507-1.003 1.654.778-.597 1.324-1 1.871-1.404Zm10.155-14.443c.759 1.049.718 1.047 1.929 1.187.119.024.348-.149.872-.393-.829-.228-1.577-.453-2.801-.794Zm50.109-13.902c-.225.153-.41.308-.636.461.824.268 1.607.534 2.431.802.183-.135.408-.288.59-.422a40.947 40.947 0 0 0-2.385-.84Zm29.385 5.053c-.016-.181-.076-.344-.092-.525-.783.035-1.61.088-2.393.123.019.16.038.322.06.463a98.357 98.357 0 0 0 2.425-.061Zm-50.799-6.353 2.774.09c-.541-1.142-1.605-.855-2.774-.09Zm-32.954 34.795c-.307.15-.611.28-.919.431.656.303 1.314.585 2.01.889l.661-.34c-.571-.32-1.142-.64-1.752-.98Zm-6.462-15.466c.017.181.074.364.09.545.699-.018 1.442-.053 2.14-.07-.057-.183-.095-.506-.217-.51-.653-.021-1.354.016-2.013.035ZM1086.58 27.9c-.15-.145-.25-.27-.4-.414-.68.178-1.39.335-2.07.514.07.103.18.187.24.29.76-.137 1.51-.253 2.23-.39Zm-634.512-1.66c-.353-.112-.707-.224-1.058-.356-.416.348-.875.715-1.291 1.062.275.09.549.179.783.267a49.67 49.67 0 0 1 1.566-.973Zm27.832 3.216c-.617-.281-.916-.492-1.319-.545-.201-.027-.848.213-.818.294.051.223.302.492.617.583.239.047.8-.155 1.52-.332Zm8.862-.093c1.243.503 1.621.736 1.789.701.422-.087.737-.297 1.085-.446-.307-.15-.598-.421-.922-.452-.486-.036-1.038.107-1.952.197ZM573.637 18c-.006-.563.002-.924-.017-1.386-2.441.483-2.082.855.017 1.386Zm465.393 13.387c.35-.17.78-.316.75-.417-.02-.141-.4-.334-.68-.364-.2-.026-.68.179-.7.299-.02.14.33.271.63.482Zm-555.405-4.62c-.389-.153-.653-.322-.936-.352-.323-.03-.669.1-1.003.148.302.19.519.399.911.532.12.024.557-.183 1.028-.328Zm-4.799-19.265c-.149-.105-.299-.21-.408-.315-.598.182-1.158.384-1.756.565.111.084.22.188.372.273a63.36 63.36 0 0 1 1.792-.523Zm2.717 22.83c-.221.114-.403.248-.623.361.547.199 1.096.377 1.643.576.136-.096.312-.19.448-.287a15.824 15.824 0 0 0-1.468-.65Zm-3.474-4.288c-.353.19-.821.314-.796.436.021.14.399.374.685.383.245.008.761-.176.78-.316.06-.138-.37-.293-.669-.503Zm6.004-1.37c-.536.324-.843.474-.805.496.229.128.501.237.772.346.136-.096.436-.186.403-.248-.057-.182-.237-.369-.37-.594Zm26.938 5.876c.228-.173.661-.34.587-.402-.144-.145-.492-.297-.818-.308-.204-.006-.476.186-.737.298.269.129.541.238.968.412Zm1.26-4.756c.563-.523.832-.695.854-.855.016-.12-.334-.252-.563-.38-.215.073-.511.144-.565.243-.019.14.081.303.274.992ZM547.63 7.075c.264-.131.484-.245.707-.378-.198-.047-.386-.173-.552-.158-.206.013-.467.125-.563.222-.049.059.223.168.408.314Zm6.966 6.028c.38-.088.592-.14.805-.194-.229-.128-.373-.273-.65-.343-.12-.024-.422.087-.675.14.188.126.332.27.52.397Zm398.318 31.855c-.184-.146-.293-.25-.443-.355-.299.09-.595.16-.854.253.109.104.289.29.373.273.329-.01.628-.1.924-.17ZM532.217 13.177c-.068-.103-.087-.264-.245-.31-.117-.043-.414.027-.62.04l.31.432c.209-.033.381-.088.555-.162Zm-1.394-5.726c.337-.07.549-.123.761-.176-.187-.127-.329-.292-.56-.4-.079-.023-.587.101-.549.123.06.162.204.308.348.453Zm453.67 37.874c-.196-.066-.351-.131-.59-.18-.079-.022-.212.054-.299.091.111.084.22.188.372.273.171-.054.343-.109.517-.184ZM520.895 29.267c-.264.132-.438.206-.571.282.193.087.34.212.582.24.16.025.419-.067.628-.1-.228-.128-.413-.274-.639-.422Zm473.372-2.21c.141.165.277.37.359.373.369-.008.709-.097 1.044-.147l-.433-.435c-.293.05-.633.14-.97.21Zm-477.732-1.585c.109.103.131.245.329.291.12.024.378-.068.59-.121-.147-.125-.291-.27-.438-.395-.133.075-.307.15-.481.224Zm-24.97.751c.03.081.057.183.087.264.245.008.563.078.731.044.256-.072.4-.228.579-.343-.413.027-.905.031-1.397.035Zm569.165 1.355c-.8-.166-1.11-.257-1.44-.268-.2-.006-.58.082-.59.142-.02.14.12.305.22.448.3-.05.59-.1 1.81-.322Zm-623.537-4.633c.302-.11.642-.2.865-.333.043-.019-.288-.29-.332-.272-.337.07-.636.16-.976.25.149.105.258.209.443.355Zm31.601 3.82c.215-.073.348-.149.52-.204-.153-.085-.259-.209-.422-.214-.163-.005-.424.107-.476.185.033.061.267.15.378.233ZM305.187 9.95c1.066.296 2.094.57 3.119.865 1.278-.661 2.208-1.474 3.6-1.77 1.052-.206 2.667.268 4 .412-1.041 2.535-1.041 2.535.265 4.083 2.055-.053 4.152-.105 6.945-.155-1.439-.87-2.396-1.664-3.797-2.211-1.553-.633-1.714-1.26-.993-2.34 2.524 1.627 5.545 1.103 8.541.76.791-.095 1.846-.322 2.317-.166 3.891 1.21 8.071.604 12.174.558 2.79-.03 3.5.475 2.872 2.08-2.352-.177-4.751-1.218-6.972.054-1.061-.336-1.912-.705-2.872-.877-2.676-.508-3.804-.344-5.756.756-.71.399-1.381.818-2.088 1.197-.264.132-.645.22-1.156.364.862.59 1.705.416 2.831.272 2.792-.35 5.485-.262 7.856 1.28-5.003.64-9.359.137-13.77-.268-4.492-.407-9.308.058-12.476-1.05a852.68 852.68 0 0 0-5.819.012c-.286-.01-.522-.077-.811-.067-5.721.195-11.165-.745-16.807-.829-3.927-.047-3.921-.087-3.332-2.015 1.819.18 3.807.626 5.471.44 1.664-.187 3.046-1.005 5.242-1.797-.298.994-.456 1.55-.687 2.346 2.431-.402 4.098-.007 5.898.614 1.879.643 4.161.136 6.222-1.162-1.124-.78-4.504-.93-3.305-2.517 1.942-.117 2.263.837 3.402 1.195l-.114-.064Zm7.25 3.629c1.944-.439 2.306-.989 1.142-1.468-.933-.372-1.118-1.723-3.579-.8.8.75 1.564 1.457 2.437 2.268Zm12.163-.868c.402-.248.843-.474.767-.517-.335-.252-.8-.448-1.221-.662-.308.15-.917.412-.843.474.294.25.759.447 1.297.705Zm1.949-1.382c.465-.105.96-.13 1.058-.246.101-.138-.16-.327-.258-.51-.419.066-.841.153-1.259.22.141.165.245.309.459.536Zm-69.265 22.222c-1.36.056-2.687.173-4.033.13-2.284-.075-4.516-.228-6.792-.362-.773-.046-1.684-.276-2.274-.155-3.872.757-6.858-.183-10.091-1.112-3.062.824-6.154.06-9.218-.3-.645-.081-1.02-.636-1.618-1.056 2.305-.688 4.6-.694 6.267-.298 2.143.512 4.142.275 6.217.383 4.146.236 8.217.73 12.342 1.125.89.09 1.811.24 2.679.188 2.852-.188 5.003.264 6.521 1.457 0 0-.003.02 0 0Zm5.373 5.729c4.723-.69 9.392.828 14.197-.16.258.21.786.547 1.344.967 1.995-.216 3.95-.433 5.821-.633 4.322 1.968 9.281 1.647 14.627 1.2 1.811 1.443 5.259 1.094 8.207 1.411l.408.014c5.827-.373 5.827-.373 10.646.648-4.098.609-46.189-1.988-55.25-3.448Zm103.4 3.936c.481-.225.965-.47 1.536-.753.642.402 1.373.747 1.849 1.164.329.292.756.768.522.98-.28.253-1.288.44-1.941.42-5.797-.15-11.633-.32-17.419-.549-3.057-.12-6.083-.459-9.099-.577-2.526-.103-3.038-.862-3.462-2.26 3.451 1.738 7.579 1.21 11.19 1.769 1.925.304 4.527-.454 6.86-.74.025.121.106.425.153.688 1.582.111 3.113.302 4.666.332 1.838.04 3.804.345 5.316-.529l-.171.055ZM257.589 26.545c.77-.236 1.412-.436 1.925-.6 2.796.834 5.396 1.601 8.822 2.616-4.709.59-7.962-1.102-11.209-.727-4.081.49-6.722-1.182-10.583-.806 1.525-1.878 2.036-2.021 4.766-1.611 1.167.158 2.344.237 3.465.434 1.041.174 1.944.465 2.814.694Z"/><path d="M324.037 24.091c-1.787-.42-3.508-.717-4.96-1.185-.667-.223-.835-.79-1.624-1.619 2.98.077 5.172-.072 7.103.191 4.579.672 4.527.75 6.699-1.367 1.235-.04 2.513-.099 3.832-.156.685 1.287-1.844.903-2.727 1.376l-.312 2.299c-2.929.145-6.252-1.93-8.011.461Zm47.797.759c-.354-1.316 2.325-1.43 3.866-2.222-1.971-.566-3.744-1.086-5.754-1.673 3.448-.65 6.605-.367 8.044.804.884.731 2.129.912 3.53 1.159 1.28.222 2.412.64 4.544 1.232-1.488.393-2.167.572-3.231.858-3.358-1.213-7.178-1.137-11.075-.2l.076.042ZM283.464 8.5c-.626.382-1.156.666-1.604.952-2.013-2.073-6.687-.84-9.934-1.97 6.414-1.376 12.565-.212 18.667.107-.415 1.853-2.215 2.136-7.129.912Zm72.779 5.018a837.9 837.9 0 0 0-6.97-1.472c-.758-.145-1.658-.154-2.287-.356-.47-.155-.867-.55-.791-.808.076-.259.723-.499 1.199-.684.302-.11.837-.133 1.158-.083 4.164.718 8.822.208 12.906 1.204l-.114-.064c-.528.264-1.039.709-1.615.73-2.023.115-2.967.726-3.652 1.547l.166-.014ZM220.969 31.217c-3.495-.214-6.847-.565-10.127-.551-3.442.008-6.548-.354-9.553-1.155 3.155.304 6.11-.945 9.384-.015 1.382.386 3.416.192 5.17.249 1.223.04 2.42-.021 3.635.078 1.906.143 1.866.744 1.491 1.394Zm72.218-29.104c2.536-1.182 4.813-.446 7.037-.233.729.064 1.566.533 2.029.448 2.692-.515 4.794.297 7.385.522-3.559.867-11.094.541-16.451-.737Zm-37.152 8.667c.451-.607.804-1.097 1.255-1.705 1.091.417 1.79.7 2.842 1.097.4-.53.623-.964 1.001-1.333.329-.31.853-.554 1.9-.72l-.241 1.778c2.164.351 4.171.658 6.137.963l-.171.356c-3.995-.15-8.114-.285-12.723-.436Zm65.758 31.988c2.257-.328 4.791.617 5.533-.924.563.38.938.934 1.692 1.119.712.184 1.838.04 2.781.03 2.88-.086 2.88-.086 5.162.61-2.923.708-11.475.329-15.168-.835Zm30.289-37.202c.321-.25.634-.44.868-.654.734-.578 1.862-.742 2.61-.216.413.275.147 1.029-.386 1.333-.712.418-2.006.597-2.944.867-2.013-.868-3.797-1.609-5.616-2.39 3.494-.389 3.494-.389 5.468 1.06Zm7.484 1.607c-.86-1.514 1.332-1.964 2.498-2.71 1.213.12 2.344.238 3.274.328l-.377 2.778c-.25.032-.539.043-.789.075-.489-.317-.979-.634-1.58-1.035-.881.152-1.805.322-3.026.564ZM344.955 4.66c-2.782.27-5.15.515-8.054.781-1.017-.354-2.502-.884-3.949-1.393.057-.119.155-.236.209-.334 3.508.114 7.019.208 10.521.363.408.013.696.304 1.273.583Zm-33.301 16.797c-1.107.606-1.857 1.003-2.741 1.476 1.273.584 3.715.402 3.359 1.515-.128.337-.517.786-1.022.89-.547.103-1.836-.06-2.013-.266-.696-.906-1.588-1.879-1.545-2.8.038-.882 1.849-.944 3.962-.815Zm-39.908-10.208c2.763-.13 5.083-.316 7.416-.3.696.002 1.4.547 2.404 1.001-3.209.699-5.83.693-8.386.209-.52-.098-.832-.51-1.434-.91Zm-35.444 15.123c2.224-.088 4.451-.195 7.089-.31l-.28 2.058c-2.439-.44-4.72-.836-6.958-1.25.062-.16.127-.338.149-.498Zm65.718-9.385c.664 1.447 1.366 2.915 2.06 4.443-3.834-.727-4.161-1.34-2.06-4.443Zm14.333.067c1.091 1.32 1.896 2.33 2.845 3.485-2.055.054-3.551-.397-4.503-1.23-.878-.772.345-1.334 1.658-2.255Zm3.666 8.286c-.854.553-1.493 1.034-2.208 1.473-.399.228-.878.433-1.49.714-1.207-.762-1.237-1.446-.212-2.054.897-.573 2.077-.816 3.91-.134Zm-70.62-19.98c3.38.451 6.507-.25 8.539 1.382-1.419-.106-2.882-.194-4.296-.34-1.336-.124-3.277.595-4.243-1.042Zm40.722 13.559c-.342 1.915-.853 2.06-5.424 1.63 1.427-.858 1.427-.858 5.424-1.63Zm-8.343 4.418c-1.778-.48-3.983.974-5.566-.342 3.701-1.304 4.435-1.28 5.566.342ZM247.261 9.941c2.452-1.164 4.617-.512 6.958-.255-2.02.998-3.627 1.066-6.958.255Zm-20.333 15.72c3.644-1.186 5.18-1.035 5.901.594-2.053.034-4.024.07-5.901-.594Zm56.988-7.801c-.8.154-1.634.267-2.32.486-.641.2-1.133.505-1.789.804-.906-1.474.155-2.343 2.656-2.362 1.64-.007 1.654.495 1.368 1.088.039.022.085-.017.085-.017Zm-92.321 10.756 8.362.273c-.62.341-.993.67-1.278.661-2.401-.118-4.794-.297-7.187-.475.019-.14.081-.299.103-.459Zm107.579-4.209c2.259.254 4.69-.75 6.89.244-2.768.773-4.69.75-6.89-.244ZM242.5 9.409c-2.026.135-4.258.885-6.349-.307 2.526-.801 4.367.122 6.349.307Zm53.903 10.664c-.584-.822-1.131-1.623-1.719-2.425 2.543-.318 2.543-.318 4.128.978-.799.455-1.683.928-2.525 1.403l.116.044Zm3.782-10.986c-1.539.171-2.624.316-4.122.488-1.124-.478-.876-1.092.774-1.48 1.95-.478 2.418.3 3.348.992Zm62.204 14.11c-1.137-1.582-1.137-1.582 1.201-2.51.648.965.648.965-1.201 2.51ZM314.017 4.348c-1.194-.561-1.982-1.089-.59-1.686.348-.149 1.762-.003 2.061.208 1.082.778-.111 1.12-1.471 1.478Zm29.005 19.044c-1.898.098-3.094.16-4.66.23 1.723-1.53 2.218-1.554 4.66-.23Zm-104.835 14.11c2.254-.61 4.25-.524 5.917.473-1.985-.165-3.973-.31-5.917-.473Zm53.808-35.997c-2.083 1.458-2.412 1.467-4.724.087 1.684-.025 3.119-.039 4.724-.087Zm-93.782 5.546c1.882-.58 3.067-.562 4.313.22-1.474.595-2.649.497-4.313-.22Z"/><path d="M296.288 19.986c-.076 1.162-2.232 1.051-3.603 1.488-.177-1.41-.177-1.41 3.717-1.424l-.114-.064Zm85.973-.443c-.068.5-.021.762-.176.998-.155.235-.509.425-.824.635-2.363-1-2.317-1.039 1-1.633Zm-117.017 2.173a147.06 147.06 0 0 0-2.934 1.39c-1.376-1.33-1.156-1.444 2.934-1.39Zm135.143-12.88c-2.439.463-3.872.155-5.968-.395 2.64-.737 3.999-.19 5.968.395ZM310 16.492c.606 1.265.566 1.866-2.382 2.15.886-.793 1.446-1.297 2.382-2.15ZM216.677 6.49c.106.726.163 1.21.256 1.735-.694-.023-1.235.04-1.425-.067-1.197-.54-.762-1.028 1.169-1.668Zm121.767 7.455c.713.485 1.197.842 1.722 1.2-.517.185-.78.316-.941.291-1.702-.136-2.056-.549-.781-1.49Zm-13.285-9.863c-1.042-.174-2.045-.327-3.087-.502 1.738-.425 1.738-.425 3.353.05a2.079 2.079 0 0 0-.266.452Zm-41.006 19.285c1.107-.305 2.21-.59 3.233-.878.022.744-1.131 1.087-2.629 1.26a8.427 8.427 0 0 0-.604-.381Zm-1.951 2.293c1.155-.364 2.148-1.336 4.424-.6-1.795.243-3.089.422-4.424.6Zm-.104-24.532c1.071-.046 2.143-.091 3.255-.135.06.162.079.324.141.466-1.079.106-2.156.19-3.235.296-.055-.202-.107-.425-.161-.627ZM232.796 9.07c-.74.016-1.52.031-2.257.027-.082-.003-.204-.308-.161-.326.715-.138 1.469-.254 2.181-.371.09.244.141.466.237.67Zm-15.399 15.327c-.701.339-1.365.698-2.066 1.037-.196-.067-.432-.135-.628-.201.234-.214.391-.47.742-.639.356-.209.867-.353 1.34-.518.191.107.381.213.612.321Zm3.713-4.989c-.764.195-1.525.371-2.289.567-.147-.125-.291-.27-.479-.397.726-.217 1.493-.433 2.219-.65.182.167.367.313.549.48Zm-24.129 3.857c-.634-.16-1.265-.342-1.939-.505.185-.154.467-.426.549-.423.639.121 1.27.302 1.904.463-.185.155-.37.31-.514.465Zm164.554-3.449c-.745.056-1.452.133-2.195.169-.081-.003-.285-.31-.242-.33a47.474 47.474 0 0 1 1.996-.516c.133.225.308.451.441.677ZM265.03 7.63c-.123-.305-.297-.532-.308-.753.008-.06.843-.173.957-.11.308.151.397.395.574.602-.296.07-.633.14-1.223.26Zm-23.737.033c.46-.366.881-.754 1.34-1.12.237.068.476.116.713.183-.381.39-.721.78-1.101 1.169-.318-.07-.636-.141-.952-.232Zm-6.125 17.139c.756-.136 1.51-.252 2.265-.388.106.124.169.266.275.39-.756.136-1.509.252-2.265.388-.106-.124-.171-.246-.275-.39Zm-9.216-16.586c.769.066 1.536.15 2.306.216-.014.1-.027.2-.079.278l-2.284-.074.057-.42ZM265.936.047l1.836.06-.036.26-1.835-.06.035-.26ZM224.04 24.04c.712-.117 1.466-.233 2.181-.37l.318.371c-.677.159-1.357.337-2.034.496-.144-.145-.283-.33-.465-.497ZM176.037 6.726c-.155-.366-.367-.614-.332-.874.017-.12.582-.362.743-.337.437.095.78.286 1.172.42-.267.152-.531.283-1.583.791Zm198.574 1.597c.587.2 1.131.418 1.718.618a5.23 5.23 0 0 1-.405.268c-.587-.2-1.131-.418-1.719-.618.136-.096.272-.192.406-.268Zm-83.208 15.371c1.093.096 1.702.136 2.308.196-.505.104-.973.229-1.476.313-.082-.003-.305-.17-.832-.509Zm55.992.398c.683-.199 1.322-.379 2.004-.577.147.125.337.232.484.357-.606.24-1.21.462-1.816.703a12.692 12.692 0 0 0-.672-.483ZM296.59 27.1c-.639-.121-1.278-.242-2.116-.41 1.276-.34 1.276-.34 2.116.41Zm8.673-17.098c.595-1.065.596-1.065 3.396-.572-1.422.215-2.425.362-3.472.529l.076.043Zm22.93-5.677c.397-.208.794-.416 1.188-.604.153.085.348.152.501.237-.397.208-.792.396-1.189.604-.152-.085-.348-.152-.5-.237ZM201.099 33.061c.353.112.549.179.745.245-.258.092-.484.245-.816.275-.165.014-.435-.115-.631-.181.261-.112.482-.226.702-.339Zm152.519-10.43c-.554.163-1.106.306-1.661.468-.109-.104-.261-.189-.373-.273.56-.203 1.077-.386 1.637-.589.106.124.25.27.397.395Zm3.19.919c-.411-.294-.838-.469-.784-.567.112-.218.503-.386.816-.576.228.128.702.264.688.364-.071.218-.386.429-.72.78Zm-72.934-5.644 2.937-.506c-.71 1.602-1.972.337-2.891.468l-.046.038ZM183.021 28.323a68.872 68.872 0 0 1-1.987-.447c.097-.117.236-.233.331-.33l1.893.544a1.242 1.242 0 0 1-.237.233Zm185.245-4.094c-.413-.275-.827-.549-1.196-.842-.039-.021.56-.203.861-.313.373.273.746.546 1.156.84-.299.091-.56.203-.821.315Zm3.493.551c-.456.647-1.316.94-3.567.626 1.675-.266 2.678-.414 3.641-.563l-.074-.063ZM269.2 23.069c-.297-.231-.645-.383-.587-.502.016-.12.481-.225.742-.337.228.128.579.26.601.401-.017.12-.443.247-.756.438Zm-11.173-1.632c-.429.147-.739.317-.987.33-.285-.01-.549-.18-.824-.268.261-.112.49-.285.74-.317.25-.032.598.12 1.071.255Zm139.79-17.815-2.39.102a.874.874 0 0 1-.038-.322c.783-.035 1.604-.048 2.387-.083.028.101.014.201.041.303ZM180.544 31.448c.606.06 1.251.14 1.857.2l-.022.16c-.614 0-1.269 0-1.881-.02l.046-.34Zm185.65 11.694c-.403-.053-.979-.032-1.129-.137-.226-.148-.106-.425-.117-.647.315.091.761.126.908.251.183.166.153.386.251.57l.087-.037Zm-15.781-22.33c.754-.116 1.14-.244 1.463-.213.242.028.416.254.476.417.03.081-.326.29-.446.267-.282-.03-.511-.158-1.493-.47Zm-2.817-.603a5.802 5.802 0 0 0-.5.365c-.275-.09-.55-.179-.822-.288.136-.096.283-.272.406-.268.323.03.598.12.916.19ZM270.062.693c.389-.148.699-.318.985-.309.204.007.579.26.565.36-.059.138-.454.326-.701.338-.245-.008-.503-.217-.849-.389Zm9.397.188c-.501.064-.922.15-1.161.103-.24-.048-.332-.272-.517-.419.337-.069.682-.198.922-.15.282.03.419.234.756.466Zm43.246 17.053c-.135.096-.277.232-.486.265-.21.034-.484-.056-.726-.084.179-.114.323-.27.538-.343.169-.035.479.096.674.162Zm12.938-10.806c-.106-.124-.296-.23-.28-.35.008-.06.343-.11.555-.163.106.124.296.23.28.35-.008.06-.343.11-.555.163ZM239.809 5.05c-.172.055-.395.188-.558.183-.201-.027-.348-.152-.538-.259.255-.072.514-.164.728-.237.15.105.259.21.368.313Zm-32.904 2.484c.209-.033.47-.145.631-.12.201.027.304.17.495.277-.297.07-.59.121-.887.192-.106-.124-.171-.246-.239-.349Zm163.34.632c-.068-.102-.179-.186-.247-.289.209-.033.467-.125.628-.1.119.024.179.187.291.271-.25.032-.463.085-.672.118ZM186.948 28.072c.544.219.935.352 1.283.504-.369.008-.739.016-1.104-.016-.078-.023-.095-.204-.179-.488ZM392.325 8.154c.228.128.546.199.536.279-.014.1-.199.254-.408.287-.169.035-.443-.054-.645-.08.144-.157.329-.311.517-.486Zm-52.18 20.154c.245.008.574 0 .77.066.35.132.655.302 1.003.454-.177.095-.484.245-.484.245-.351-.132-.742-.265-1.006-.434-.152-.085-.09-.244-.155-.367-.038-.02-.128.037-.128.037ZM2495.52 11.347c-1.18-.263-2.35-.727-3.54-.728-3.32-.012-6.65.177-10.81.313 1.71 1.188 2.89 2.013 4.02 2.799 2.33-.096 2.98-1.884 5.48-.982 1.42.516 2.59 1.22 1.62 2.276-2.22-.088-4.44-.136-6.63-.266-2.23-.128-4.47-.316-6.91-.477-1.95 1.007-5.01.786-7.72 1.015-.77.065-2.21-.53-2.59-.96-.58-.623.51-1.04 1.7-1.36 3.32-.87 6.53-.434 9.8.102.59.101 1.18.223 1.9.38-.42-1.853-1.82-2.49-4.86-2.552a47.496 47.496 0 0 1-5.13-.414c-.5-.064-1.23-.603-1.1-.848.63-1.365-1.15-1.187-3.4-1.234.66.942 1.21 1.707 1.82 2.61-.96.112-1.75.339-2.37.279-3.95-.413-7.89-.727-11.91-.194-.12.024-.25-.012-.42-.027-6.04-.144-12.07-.228-18.05-.495-2.02-.095-3.73-.32-5.64.364-1.57.553-2.36.158-2.93-1.35-2.99 1.543-2.33.94-5.46.52-1.29-.159-1.71-.546-1.12-.987 2.36.164 4.47.316 6.58.468l2.94-.096c.01-1.064.14-1.932 2.64-2.254 2.25-.294 2.66.556 3.89 1.5 1.24-1.145 2.22-2.02 3.24-2.957 2.77.17 3.14 1.102 3.49 2.135.08.318.77.818 1.22.823 1.4.035 1.28-.504 1.13-1l-.17-.396c-.45-.889.24-1.494 2.12-1.555 2.08-.068 2.34.666 2.33 1.49-.02.422.24.855.52 1.71 1-.756 1.53-1.135 2.05-1.533.75.136 1.47.273 2.22.41.3-.231.65-.383.71-.546.52-1.562 1.15-1.764 4.16-1.3 1.43.215 2.96.948 4.25-.44.53.646.92 1.075 1.3 1.484.45-.035.86-.028.93-.11 1.65-1.7 4.11-1.7 7.42-1.146 3.65.604 7.52.156 11.31-.027 2.56-.144 1.83-1.265 2.41-2.146 2.07-.128 4.23-.259 6.34-.408-.01-.06.02-.101.02-.16-1.77-.004-3.49-.048-5.25-.01-1.35.043-2.77.11-2.89 1.057-.05.242-.81.649-1.26.663-4.29.1-8.63.382-12.89-.804-2.9 1.28-6.78.763-10.32.919-3.47.153-7.03-.152-10.77-.271.03-.363.09-.826.11-1.288-.21-.034-.42-.047-.59-.082-.62.523-1.21 1.023-1.98 1.67-.9-.271-1.82-.442-2.4-.764-2.04-1.158-3.29-1.298-4.87-.223-.85.61-1.78.74-3.05.722-1.44-.013-2.91-.005-4.36-.099-.54-.042-1.15-.304-1.47-.554-1.05-.809-2.54-.92-4.24-.805-.19.729-.38 1.438-.67 2.35 1.29.099 2.61.176 4.06.29-2.4 1.342-3.97.972-6.07-1.529-2.08.068-4.35.262-6.57.174-2.1-.072-4.46.627-6.62-.467 2.66-.91 5.53-.02 8.97-.613-1.54-.15-2.16-.25-2.82-.27-9.37-.216-18.71-.474-28.11-.609-1.72-.024-4.3-.602-5.03.947-.03.062-2.21.032-2.31-.105-.75-1.28-2.85-1.051-4.66-1.113-13.83-.472-27.66-.984-41.48-1.377a1926.1 1926.1 0 0 0-30.53-.63c-5.58-.08-11.13.101-16.74.124-7.33.038-14.66.016-22.03.076-4.34.02-8.69.243-13.04.204-7.38-.06-14.71.921-22.11.42-9.93 1.066-20.08.253-30.03.918-4.01.272-8.02.624-12.05.855-1.87.101-3.8.024-5.69.025-.69.003-1.36-.096-2.01-.035-4.29.401-8.4.896-13.01.405-4.16-.427-8.66-.06-13.02.063-4.17.115-8.34.432-12.51.548-3.39.09-6.75.04-10.15.03-3.37-.03-6.75-.182-10.14-.111-12.34.242-24.72.465-37.04.846-8.94.292-17.79.861-26.71 1.252-5.95.254-11.96.33-17.9.604-11.36.551-22.7 1.162-34.05 1.793-11.75.644-23.51 1.268-35.24 2.032-14.95.97-29.87 1.817-44.94 2.148-10.17.23-20.36.603-30.55.735-10.06.127-20.15.054-30.19.04-.53-.002-1.07-.045-1.64-.046-11.96.028-23.94.178-35.88.086-11.81-.097-23.61-.435-35.45-.671-3-.063-5.96-.147-8.96-.25-2.14-.07-4.33-.18-6.48-.31-1.73-.105-3.48-.289-5.24-.331-7.73-.19-15.46-.42-23.22-.488-8.98-.088-17.94.003-26.93-.086-20.83-.183-41.63.254-62.4.57-18.23.273-36.47.507-54.68.378-15.71-.11-31.25.677-46.91.887-12.8.156-25.58.211-38.35.327-15.38.12-30.78.2-46.16.36-12.11.114-24.21.308-36.32.462-1.64.013-3.26.127-4.89.16-3.6.077-5.36.696-5.69 2.433-.3 1.435.15 2.926.18 4.39.03.782.14 1.621-.38 2.34-.65.905-.67 1.669.42 2.456 2.67 1.9 2.07 4.088 2.11 6.194.04.862-.42 1.74-.18 2.575 1.01 3.24.38 6.45-.24 9.683-.53 2.747-.44 5.534-.62 8.43.58.082 1.21.202 1.88.24 7.14.41 14.27 1 21.46 1.187 11.8.298 23.67.513 35.46.45 11.95-.069 23.93-.54 35.91-.77 3.39-.07 6.77.121 10.17.09 6.26-.063 12.5-.227 18.76-.29 3.11-.041 6.24.098 9.36.076 12.81-.096 25.57-.211 38.38-.328 16.04-.141 32.1-.143 48.16.176 8.42.167 16.89.052 25.3.119 6.68.043 13.3.248 19.99.272 8.72.016 17.44-.087 26.11-.15 6.39-.027 12.78-.075 19.17-.082 6.63.004 13.25.17 19.83.036 4.94-.121 9.83 0 14.75-.02 1.51-.009 3.08.06 4.55-.59 1.31-.604 3.29-.77 4.69.209.19.134.66.3.78.275 1.93-.544 4.57.795 6.27-.585.15-.126 1.85.04 2.54.278 1.5.533 2.6 1.38 4.43.037.41-.295 2.96.103 4.54.233.74.056 1.56.37 2.21.289 5.4-.638 10.61-.266 15.87.406 2.27-.737 3.79.478 5.68.557 2.72.112 5.73.255 8.17-.186 4.44-.827 8.95-.753 13.39-.657 1.27.019 2.45.201 3.9.073 1.91-.162 3.95.112 5.93.209.25.011.52.183.72.177 1.54-.15 3.03-.32 4.57-.49 1.45-.168 2.31 1.048 4.03.41.35-.132 1.46-.048 1.81.122 1.59.85 2.29-.055 3-.239 3.16.299 5.98.568 8.84.816.33.03.81-.086 1.08-.216 1.52-.832 2.58-.264 3.55.226 1.44-.288 2.72-.772 4.03-.774 1.36-.004 2.69.474 4.46.818.47-.156 1.33-.445 2.39-.82.64.24 1.37.497 2.24.81.58-.2 1.21-.421 1.95-.686.65.26 1.3.54 1.95.8 2.3-.878 2.47-1.145 6.74-.461 3.77.6 7.01.032 10.51-.182 3.04-.18 6.19-.523 8.89.593.73-.305 1.31-.545 2.02-.808 3.81 1.26 8.11.598 12.25.644.37.008.78-.306 1.17-.48 1.55-.652 3.47-.695 4.77-.115 1.57.671 3.16.6 4.92.582 3.1-.04 6.24.098 9.35.057 20.53-.268 41.1-.498 61.62-.885 19.73-.383 39.44-.664 59.15-.624 14.84.038 29.67-.225 44.49-.327 7.57-.046 15.16-.012 22.77-.08 1.6-.012 3.16-.263 4.74-.415 2.22-.213 4.4-.726 6.6.086.31.11.8.134 1.17.122l16.95-.372c2.04-.047 4.08-.093 6.09-.118 10.59-.145 21.18-.27 31.77-.474 1.43-.027 2.81-.393 4.22-.56.77-.084 1.73-.276 2.28-.114 2.64.717 5.37.307 8.02.22 6.4-.228 12.75-.536 19.1-.843 1.99-.105 4.14.026 5.66-.867.23-.128.87-.25 1.08-.196 2.22.65 4.32.422 6.46-.09 3.6.866 6.85-.203 10.22-.494.93-.09 1.94-.163 2.82-.051 4.95.6 9.83.281 14.77-.14 2.71-.23 5.55-.162 8.34-.132 2.46.02 4.88.041 7.08-.633.79-.246 1.89-.563 2.6-.446 3.05.443 5.82-.29 8.72-.344 3.15-.063 6.25-.184 9.39-.286 3.51-.114 7.02-.209 10.52-.363 2.16-.09 4.21-.378 6.2.42.48.205 1.94-.164 2.91-.276 1.09-.136 2.67-.588 3.15-.383 2.25.91 4.74.528 6.97.334 5.02-.424 9.96-.826 15.08-.511 2.44.16 5.02-.204 7.54-.307 2.24-.093 4.57-.49 6.61.407.35.15 1.34.217 1.53.11 2.61-1.348 5.95-.574 8.81-.607 13.3-.153 26.63-.045 39.98-.08 4.3 0 8.62-.14 12.96-.181 9.49-.069 19.04-.099 28.52-.228 1.84-.02 3.64-.34 5.54-.541-1.47-1.478-1.47-1.478-6.52-.992-.07-.5-.13-.96-.22-1.579-2.48.422-5.1.166-6.55 1.499-.51.478-3.27.106-4.29-.463-.49-.305-.86-.634-1.59-1.172-2.16.672-4.21 1.281-6.33 1.932-1.5-.493-2.69-1.076-3.02-1.989-2.77.713-3.67.682-8.36-.31 3.01-.479 5.66.037 8.32.331 1.05-.114 2.06-.227 3.15-.343.04-.322.12-.646.18-1.11 1.07.066 2.37-.057 3.06.202 3.37 1.275 6.54.509 9.79-.019.6-.1 1.27-.262 1.86-.2 2.48.22 4.98.5 7.55.756.87-.289 1.06-.958 3.06-.722 2 .256 4.43-.304 6.63-.356 4.7-.113 9.47.373 14.11-.48 2.44.763 4.78-.076 7.05-.25 3.78-.264 7.49-.104 11.17.138 2.23.148 3.88-.067 5.51-.762.89-.37 2.09-.59 3.31-.931.79.416 1.5.774 2.38 1.227.9-.33 1.72-.638 2.57-.967.04-.002.24-.048.33-.03 3.74 1.342 7.44-.966 11.22-.045.46.105 1.55.009 1.89-.203 1.33-.786 2.78-.693 4.38-.343.25.052.59.121.79.074 1.35-.285 2.64-.768 4.02-.873 1.13-.097 2.24 1.13 3.69.04.3-.21 1.5-.13 2.27-.175 3.61-.278 7.22-.556 10.83-.814 1.34-.104 2.68-.148 4-.15 2.54-.003 5.08.034 7.62.032.45.005 1-.173 1.34-.365 1.3-.745 2.8-.794 4.71-.615 2.79.27 3.92-.108 5.12-1.231v.02c-.52-.204-1.19-.663-1.55-.591-1.96.324-3.59.457-5.79-.053-1.43-.334-4.3-.02-5.58.543-1.89.825-3.58.74-5.62.545-1.82-.161-3.69-.682-5.19.37-.23.148-1.01.113-1.5.13-2.36.096-4.82-.225-7.05.53-.55.179-1.88-.24-3.01-.404-1.11.278-2.41.621-2.89.737-2.44-.462-4.16-.788-5.81-1.115-1.23.582-2.19 1.035-3.23 1.53-1.99-.196-4.17-1.129-5.73.307-3.55-.145-7.3 1.162-10.8-.45-2.17.913-4.27 1.404-7.32.68-1.4-.336-3.5-.127-5.27-.49-.68-.14-1.78.178-2.61.386-1.07.275-2.04.648-3.34 1.052-1.77-.946-3.63-.745-5.39.155-1.12-.425-2.03-.797-3.11-1.203-.23.128-.62.261-.64.402-.28.973-1.22 1.285-3.08.844-3.85-.898-4.79-.848-7.86.396-3.05-1.044-6.12-1.667-9.63-.348-.7.264-2.14.23-3.06.08-3.56-.527-6.95-.496-10.01.507-3.02-.785-5.86-1.495-9.04-.489-.4.114-1.05.095-1.55.051a480.85 480.85 0 0 1-6.93-.637c-.28-.533.24-.931 1.55-.934 3.73-.001 7.59.355 11.15-.002 2.62-.266 5.62.72 8.07-.584.61-.341 2.6-.145 3.92-.068 5.24.27 10.55.399 15.51-.446 3.09-.522 5.67-.486 8.42.167 1-.494 1.88-.924 3.12-1.506.58.643.96 1.092 1.45 1.639.63-.161 1.36-.225 1.78-.44 1.27-.603 2.54-.906 4.42-.686.83.093 1.82-.12 2.71-.229.4-.053.9-.29 1.07-.235 3.1 1.083 5.94-.315 8.91-.17 1.24.06 2.42.282 3.67.442 1.54-1.596 3.39-1.837 6.39-.89.9.291 2.19.43 3.3.434 2.41.001 4.85-.139 7.67-.23-.48-.768-.84-1.338-1.26-1.987.69-.043 1.25-.16 1.43-.066 4.22 1.85 8.61 1.566 13.16.354.91-.25 2.46-.543 3.06-.341 3.87 1.319 5.76-.429 8.66-1.126.99-.233 2.87.348 4.42.559 4.48-1.41 4.48-1.41 8.12-1.108.12-.686.19-1.37.35-2.3-1.48.31-2.39.52-3.35.712-3.32-1.538-6.89-1.3-10.21.834-4.84-.946-9.63-.649-14.36.469-.87.209-2.13-.031-3.19-.017-3.07.08-6.12.2-9.79.32-2.67-.656-6.01-1.11-9.63-.309-.56.119-1.28.223-1.9.183-4.3-.262-7.81.756-11.32 1.713-3.99-1.034-5.07-2.042-3.48-3.278 1.52-1.174 3.19-1.228 6.38-.088.29-.29.54-.56.79-.829.21-.247.38-.494.79-1.09 1.02.89 1.49 1.277 2.09 1.78 1.32-.546 2.6-1.069 4.03-1.658-1.39-1.179-3.36-1.215-5.62-.96-3.23.366-6.5.673-9.78 1-.4.034-.81.027-1.19-.02-3.29-.395-6.47-.593-9.87.04-3.11.583-6.5.032-9.72-.084-1.36-.056-2.5-.04-3.87.106-5.57.623-11.23.888-16.93.592-1.44-.074-2.83-.35-4.66-.59-1.95 1.387-5.39.476-8.43 1.017-.4-.57-.76-1.06-1.2-1.607-.89-.493-3.49.234-3.6-1.127 1.48.032 2.96.004 4.4.117 1.37.096 2.75.332 4.42.559.78-1.511 2.72-2.92.27-4.345-2.14-.13-4.09-.268-6.36-.395-.06.785-.14 1.691-.21 2.657-1.87.121-1.99-.437-1.85-1.205.14-.807.88-1.694-.93-2.659-.26.47-.21.85-.6 1.003-.74.285-1.7.457-2.57.666-1.07-1.21-3.42-.43-5.07-.778-1.47-.313-2.05.248-2.29.898-2.01-.637-3.98-1.255-6.3-2.003-.5.84-.79 1.371-1.23 2.108-1.58-.19-3.54-.126-4.25-.564-2.28-1.371-5.59-.741-8.28-1.256-1.69-.326-3.35.37-3.35 1.635-1.53-.412-2.86-2.095-4.47-.035-1.02-.609-1.74-1.047-2.36-1.408-4.22-.023-8.33.21-12.26-.102-6.26-.519-12.49-.255-18.77-.332-.41-.006-.94.05-1.2-.061-2.72-1.015-5.09-.416-6.94.186-3.06-.201-5.58-.36-8.14-.517-2.06-.114-2.06-.094-3.54-1.611 3.36-.01 6.47-.09 9.59-.012 2.26.067 4.48.396 6.75.523 1.03.067 2.17.01 3.22-.105 1.9-.183 3.79-.445 4.89.422 3.82-.586 7.18-1.137 10.77-.35 1.52.331 3.09.4 4.71-.054.67-.182 1.87-.382 2.26-.214 2.59.98 5.14.133 7.71.09 3.89-.047 7.75.008 11.6-.017 1.63-.013 3.3-.108 4.94-.121 4.3-.02 8.56.002 12.86.022.78-.005 1.57.09 2.36.144.79.055 1.8.283 2.31.106 2.16-.693 4.21-.379 6.51-.293 4.33.18 8.75-.185 13.12-.267 3.84-.085 7.62-.289 11.49-.134 3.55.145 7.17-.314 10.75-.21 4.28.142 8.23-.93 12.68-.433 2.41.262 5.28-.353 8.4-.615.28-.632.63-1.386 1.07-2.364-3.62.46-7.27.197-9.27 2.009-2.25-.57-4.28-1.065-6.28-1.582l.13.036c-.41.334-.78.647-1.4 1.17-.45-.287-.69-.56-1.16-.665-.84-.194-1.75-.244-2.63-.396-2.3-.347-2.62-.858-1.24-1.847.3-.21.77-.366 1.16-.54l.13.057Zm-35.33 18.615c-.05.784-.9 1.454-2.4 1.282-2.55-.318-4.96-.922-7.37-1.445-.13-.037 0-.342-.02-.763 1.28.38 2.22.65 3.12.922 3.7-1.084 3.7-1.084 6.76.06 1.7-1.078 3.25-1.41 4.99-1.005 1.56.35 2.01.958 1.47 1.799-.76-.176-1.58-.49-1.81-.403-1.92.645-3.27.067-4.74-.447Zm-5.03-15.613c.52-1.322 2.47-.523 3.51-.436 1.66.167 2.81.21 3.45-.835 1.8.544 3.29.997 5.21 1.576-4.77.718-8.32.573-12.26-.363-.19.408.02 1.003-1.44.85-.37-.028-.91-.392-.81-.536.38-.855 1.46-.408 2.34-.256Zm61.68 13.966-.13-.056c.64.24 1.61.41 1.85.723.35.43.48 1.048.04 1.464-.29.29-1.69.537-2.4.42-2.22-.33-4.33-.803-6.48-1.235-.29-.07-.6-.18-1.15-.363.09.66.15 1.159.25 1.858-1.86-.08-3.42-.17-5.03-.218-1.73-.064-3.5-.146-5.26-.109-3.72.081-7.42.222-10.89.335-.49-.566-.78-.938-1.27-1.504-1.05.717-1.8 1.223-2.55 1.71-1.42-.175-2.7-.535-3.75-.4-1.12.136-1.99.726-2.84 1.075-1.94-.7-4.98-.5-6.1-1.788.78-.567 1.56-1.135 2.42-1.745 1.87.2 3.84.457 5.82.613.71.058 1.68-.034 2.27-.234 3.09-1.044 5.81-.932 8.25.735.9-.893 1.94-1.107 3.9-1.111 4.02.01 8.01-.442 12.03-.714 3.58-.237 7.15-.454 11.05-.701.04.62.01.943-.03 1.245Zm-85.01-13.226c-2.62.627-4.4-.157-6.31-.276-2.22-.128-4.79-.646-6.71-.283-4.6.833-9.37-.517-13.82.531-.2.047-.57-.021-.75-.096-2.22-.951-5-.92-8.43-.83 2.42-.88 4.14-1.539 6.17-2.268.54.384 1.39.938 2.21 1.514 1.26-.041 2.48-.141 3.67-.1 2.26.047 4.4.058 6.73-.26 1.97-.264 4.39.38 6.64.607.37.048.82.054 1.18-.018 3.75-.725 6.39.273 9.42 1.48Zm1.62-1.056c1.04-.195 1.93-.264 2.47-.502 2.43-1.143 4.74-.998 7.28-.077 2.33.847 4.93 1.304 7.95.283-.17.547-.38 1.116-.94 1.215-1.37.225-3.05.5-4.26.3-2.86-.49-5.46-.365-8.23.087-.6.1-1.3.062-1.83.08-.8-.456-1.51-.855-2.44-1.386Zm-16.42-4.443c-.65.323-1.31.625-1.8.882-1.83-.201-3.41-.37-5.45-.585.32-.673-.58-1.547 2.38-1.443.91.03 1.96-.706 2.84-1.156.84-.429 1.51-.912 2.49-1.547.74.9 1.23 1.466 1.72 2.092l-3.55.116c.54.625.93 1.114 1.37 1.641Zm-31.29-1.73c-.66 1.427-3.06 1.003-4.66 1.237-1.05.154-2.34.015-2.11-.755.15-.647 1.11-.839 2.35-.759 1.36.076 2.77.17 4.42.277Zm10.09.675c.01.341.22.696-.04.925-.25.229-.92.431-1.49.47-.33.03-1.02-.248-1.12-.425-.44-.809.17-1.45 1.76-1.764 1.36-.265 2.7-.369 3.31.514.1.158-.11.366-.21.57-.71-.098-1.33-.178-2.21-.29Zm43.9 21.612c-1.57.493-2.27.716-3.02.942-.98-.852-4.23-.384-4.55-2.08 2.43.362 4.48.677 7.57 1.138Zm-91.9-12.74c-.02.12-.09.243-.11.385-1.82.16-3.64.359-5.47.439-.53.017-1.12-.385-1.64-.609.58-.22 1.11-.578 1.76-.62 1.38-.065 2.82-.011 4.23.063.41.007.8.215 1.23.341Zm74.37 5.503c-2.05.91-3.93.61-5.91.514 1.3-1.568 1.3-1.568 5.91-.514Zm-47.55-10.453c4.7-.354 5.61-.022 4.62 1.475-1.37-.437-2.61-.838-4.62-1.475Zm28.85-4.493c.22-.128.45-.276.68-.404 1.34.238 2.86.228 3.93.876-1.19.32-2.18.573-3.36.892-.34-.37-.78-.858-1.25-1.364Zm-16.15-2.404-.06-.48c2.41-.982 2.41-.982 4.08.49-1.51.008-2.79-.01-4.02-.01Zm41.39 21.734c.27-.973.44-1.58.72-2.493 1.25.742 2.1 1.257 3.26 1.942-1.49.209-2.33.337-3.98.55Zm17.31-1.608c-1.5 1.313-2.7 1.513-4.48.507 1.22-.12 2.47-.261 4.48-.508Zm-110.31-8.93c1.2.383 1.92.58 2.86.891-1.08.477-1.89.825-3.36 1.455.19-.99.32-1.516.5-2.345Zm14.4.495c1.77.042 3.21.076 5.22.11-2.75 1.154-3 1.142-5.22-.11ZM1865.4 28.137c2.74-.37 2.74-.37 3.76.822-1.61-.35-2.7-.575-3.76-.822Zm500.72-11.809c-.13.868-.18 1.371-.24 1.855-.62-.04-1.51.03-1.78-.123-.9-.633-.18-1.078 2.02-1.732Zm-5.21 2.077c-1.05-.508-1.71-.827-2.54-1.222 3.29-.488 3.3-.469 2.54 1.222Zm100.11 8.278-3.47.113c1.31-1.207 1.31-1.207 3.47-.113Zm-38.53-19.157c-.36.092-.72.183-1.12.257-.87-.413-1.95-.8-.81-2.062.89.815 1.41 1.3 1.93 1.805Zm-531.58 19.6c.03.2.05.379.04.58-1.07.557-2 .406-3.52-.548 1.64-.013 2.58-.023 3.48-.033Zm493.31-14.78c1.13.144 2.2.23 1.77.986-.06.123-.65.282-.94.272-1.54-.131-1.4-.617-.83-1.258Zm7.71.692c-2.58.907-2.58.907-4.09-.007 1.39-.005 2.46 0 4.09.007Zm41.81 10.098c-2.02.508-2.75.27-2.45-.863 1.08.386 1.77.625 2.45.863Zm-3.06 19.109c-.22-.114-.44-.227-.7-.339.73-.345 1.42-.709 2.35-1.14 1.25 1.364-.31 1.375-1.65 1.479Zm18.97-5.737c.28-.09.55-.179.87-.25.9.312 2.32.507 1 1.654-.77-.597-1.32-1-1.87-1.404Zm-10.15-14.443c-.76 1.049-.72 1.047-1.93 1.187-.12.024-.35-.149-.87-.393.83-.228 1.57-.453 2.8-.794Zm-50.11-13.902c.22.153.41.308.63.461-.82.268-1.6.534-2.43.802-.18-.135-.4-.288-.59-.422.78-.307 1.56-.573 2.39-.84ZM2360 13.216c.02-.181.08-.344.1-.525.78.035 1.61.088 2.39.123-.02.16-.04.322-.06.463-.82-.013-1.6-.028-2.43-.061Zm50.8-6.353-2.77.09c.54-1.142 1.6-.855 2.77-.09Zm32.96 34.795c.3.15.61.28.92.431-.66.303-1.32.585-2.01.889-.22-.113-.45-.227-.67-.34.58-.32 1.15-.64 1.76-.98Zm6.46-15.466c-.02.181-.08.364-.09.545-.7-.018-1.44-.053-2.14-.07.06-.183.09-.506.22-.51.65-.021 1.35.016 2.01.035ZM1817.31 27.9c.15-.145.25-.27.4-.414.68.178 1.39.335 2.07.514-.06.103-.18.187-.24.29-.76-.137-1.51-.253-2.23-.39Zm634.51-1.659c.36-.112.71-.224 1.06-.356.42.348.88.715 1.29 1.062-.27.09-.55.179-.78.267-.5-.325-1.03-.65-1.57-.973Zm-27.83 3.216c.62-.281.92-.492 1.32-.545.2-.027.85.213.82.294-.05.223-.3.492-.62.583-.24.047-.8-.155-1.52-.332Zm-8.86-.093c-1.24.503-1.62.736-1.79.701-.42-.087-.74-.297-1.09-.446.31-.15.6-.421.93-.452.48-.036 1.03.107 1.95.197ZM2330.25 18c.01-.563 0-.924.02-1.386 2.44.483 2.08.855-.02 1.386Zm-465.39 13.387c-.35-.17-.78-.316-.75-.417.02-.141.4-.334.68-.364.21-.026.68.179.7.299.02.14-.33.271-.63.482Zm555.41-4.62c.38-.153.65-.322.93-.352.32-.03.67.1 1 .148-.3.19-.51.399-.91.532-.12.024-.55-.183-1.02-.328Zm4.79-19.265c.15-.105.3-.21.41-.315.6.182 1.16.384 1.76.565-.11.084-.22.188-.37.273-.6-.18-1.2-.362-1.8-.523Zm-2.71 22.83c.22.114.4.248.62.361-.55.199-1.1.377-1.64.576-.14-.096-.31-.19-.45-.287.46-.235.96-.453 1.47-.65Zm3.47-4.288c.35.19.82.314.8.436-.02.14-.4.374-.69.383-.24.008-.76-.176-.78-.316-.06-.138.37-.293.67-.503Zm-6-1.37c.53.324.84.474.8.496-.23.128-.5.237-.77.346-.14-.096-.44-.186-.4-.248.05-.182.23-.369.37-.594Zm-26.94 5.876c-.23-.173-.66-.34-.59-.402.15-.145.49-.297.82-.308.2-.006.48.186.74.298-.27.129-.54.238-.97.412Zm-1.26-4.756c-.56-.523-.83-.695-.85-.855-.02-.12.33-.252.56-.38.21.073.51.144.56.243.02.14-.08.303-.27.992Zm-35.36-18.719a13.59 13.59 0 0 1-.71-.378c.2-.047.39-.173.56-.158.2.013.46.125.56.222.05.059-.22.168-.41.314Zm-6.97 6.028c-.38-.088-.59-.14-.8-.194.23-.128.37-.273.65-.343.12-.024.42.087.67.14-.18.126-.33.27-.52.397Zm-398.31 31.855c.18-.146.29-.25.44-.355.3.09.59.16.85.253-.11.104-.29.29-.37.273-.33-.01-.63-.1-.92-.17Zm420.69-31.781c.07-.103.09-.264.25-.31.12-.043.41.027.62.04-.1.144-.21.288-.31.432a2.373 2.373 0 0 1-.56-.162Zm1.4-5.726c-.34-.07-.55-.123-.76-.176.18-.127.33-.292.56-.4.08-.023.58.101.55.123-.06.162-.21.308-.35.453ZM1919.4 45.325c.19-.066.35-.131.59-.18.08-.022.21.054.3.091-.11.084-.22.188-.38.273a4.964 4.964 0 0 1-.51-.184ZM2383 29.267c.26.132.43.206.57.282-.2.087-.34.212-.59.24-.16.025-.41-.067-.62-.1.22-.128.41-.274.64-.422Zm-473.38-2.21c-.14.165-.27.37-.36.373-.36-.008-.7-.097-1.04-.147.14-.145.29-.29.43-.435.3.05.64.14.97.21Zm477.74-1.585c-.11.103-.14.245-.33.291-.12.024-.38-.068-.59-.121.14-.125.29-.27.43-.395.14.075.31.15.49.224Zm24.97.751c-.03.081-.06.183-.09.264-.25.008-.56.078-.73.044-.26-.072-.4-.228-.58-.343.41.027.9.031 1.4.035Zm-569.17 1.355c.8-.166 1.11-.257 1.44-.268.2-.006.58.082.59.142.02.14-.12.305-.22.448-.3-.05-.59-.1-1.81-.322Zm623.54-4.633c-.3-.11-.64-.2-.87-.333-.04-.019.29-.29.33-.272.34.07.64.16.98.25-.15.105-.26.209-.44.355Zm-31.6 3.82c-.22-.073-.35-.149-.52-.204.15-.085.26-.209.42-.214.16-.005.42.107.47.185-.03.061-.26.15-.37.233ZM2598.7 9.95c-1.06.296-2.09.57-3.12.865-1.27-.661-2.2-1.474-3.6-1.77-1.05-.206-2.66.268-4 .412 1.05 2.535 1.05 2.535-.26 4.083-2.06-.053-4.15-.105-6.95-.155 1.44-.87 2.4-1.664 3.8-2.211 1.55-.633 1.72-1.26.99-2.34-2.52 1.627-5.54 1.103-8.54.76-.79-.095-1.84-.322-2.31-.166-3.89 1.21-8.07.604-12.18.558-2.79-.03-3.5.475-2.87 2.08 2.35-.177 4.75-1.218 6.97.054 1.06-.336 1.91-.705 2.87-.877 2.68-.508 3.81-.344 5.76.756.71.399 1.38.818 2.09 1.197.26.132.64.22 1.15.364-.86.59-1.7.416-2.83.272-2.79-.35-5.48-.262-7.85 1.28 5 .64 9.36.137 13.77-.268 4.49-.407 9.31.058 12.47-1.05 2.58-.003 4.22.004 5.82.012.29-.01.52-.077.81-.067 5.72.195 11.17-.745 16.81-.829 3.93-.047 3.92-.087 3.33-2.015-1.82.18-3.8.626-5.47.44-1.66-.187-3.04-1.005-5.24-1.797.3.994.46 1.55.69 2.346-2.43-.402-4.1-.007-5.9.614-1.88.643-4.16.136-6.22-1.162 1.12-.78 4.5-.93 3.3-2.517-1.94-.117-2.26.837-3.4 1.195l.11-.064Zm-7.25 3.629c-1.94-.439-2.3-.989-1.14-1.468.93-.372 1.12-1.723 3.58-.8-.8.75-1.56 1.457-2.44 2.268Zm-12.16-.868c-.4-.248-.84-.474-.77-.517.34-.252.8-.448 1.22-.662.31.15.92.412.85.474-.3.25-.76.447-1.3.705Zm-1.95-1.382c-.46-.105-.96-.13-1.06-.246-.1-.138.16-.327.26-.51.42.066.84.153 1.26.22-.14.165-.24.309-.46.536Zm63.89 27.951c-4.72-.69-9.39.828-14.19-.16-.26.21-.79.547-1.35.967-1.99-.216-3.95-.433-5.82-.633-4.32 1.968-9.28 1.647-14.63 1.2-1.81 1.443-5.25 1.094-8.2 1.411l-.41.014c-5.83-.373-5.83-.373-10.65.648 4.1.609 46.19-1.988 55.25-3.448Zm-103.4 3.936c-.48-.225-.96-.47-1.53-.753-.64.402-1.38.747-1.85 1.164-.33.292-.76.768-.52.98.28.253 1.28.44 1.94.42 5.79-.15 11.63-.32 17.42-.549 3.05-.12 6.08-.459 9.1-.577 2.52-.103 3.03-.862 3.46-2.26-3.45 1.738-7.58 1.21-11.19 1.769-1.93.304-4.53-.454-6.86-.74-.03.121-.11.425-.16.688-1.58.111-3.11.302-4.66.332-1.84.04-3.81.345-5.32-.529l.17.055Z"/><path d="M2579.85 24.091c1.79-.42 3.51-.717 4.96-1.185.67-.223.84-.79 1.63-1.619-2.98.077-5.17-.072-7.11.191-4.57.672-4.52.75-6.69-1.367-1.24-.04-2.52-.099-3.84-.156-.68 1.287 1.85.903 2.73 1.376.1.74.2 1.5.31 2.299 2.93.145 6.25-1.93 8.01.461Zm-47.79.759c.35-1.316-2.33-1.43-3.87-2.222 1.97-.566 3.74-1.086 5.75-1.673-3.44-.65-6.6-.367-8.04.804-.88.731-2.13.912-3.53 1.159-1.28.222-2.41.64-4.54 1.232 1.48.393 2.16.572 3.23.858 3.36-1.213 7.18-1.137 11.07-.2l-.07.042Zm15.59-11.332c2.31-.497 4.66-.995 6.97-1.472.76-.145 1.66-.154 2.28-.356.47-.155.87-.55.8-.808-.08-.259-.73-.499-1.2-.684-.31-.11-.84-.133-1.16-.083-4.17.718-8.82.208-12.91 1.204l.12-.064c.52.264 1.04.709 1.61.73 2.02.115 2.97.726 3.65 1.547l-.16-.014Zm34.45 29.25c-2.26-.328-4.79.617-5.54-.924-.56.38-.93.934-1.69 1.119-.71.184-1.84.04-2.78.03-2.88-.086-2.88-.086-5.16.61 2.92.708 11.47.329 15.17-.835Zm-30.29-37.202c-.32-.25-.64-.44-.87-.654-.73-.578-1.86-.742-2.61-.216-.41.275-.15 1.029.39 1.333.71.418 2 .597 2.94.867 2.01-.868 3.8-1.609 5.62-2.39-3.5-.389-3.5-.389-5.47 1.06Zm-7.49 1.607c.86-1.514-1.33-1.964-2.49-2.71-1.22.12-2.35.238-3.28.328.13.96.26 1.879.38 2.778.25.032.54.043.79.075.49-.317.98-.634 1.58-1.035.88.152 1.8.322 3.02.564Zm14.62-2.513c2.78.27 5.15.515 8.05.781 1.02-.354 2.5-.884 3.95-1.393-.06-.119-.16-.236-.21-.334-3.51.114-7.02.208-10.52.363-.41.013-.7.304-1.27.583Zm28.6 12.394c-1.09 1.32-1.9 2.33-2.85 3.485 2.06.054 3.55-.397 4.51-1.23.87-.772-.35-1.334-1.66-2.255Zm-3.67 8.286c.86.553 1.49 1.034 2.21 1.473.4.228.88.433 1.49.714 1.21-.762 1.24-1.446.21-2.054-.9-.573-2.08-.816-3.91-.134Zm-42.37-2.143c1.14-1.582 1.14-1.582-1.2-2.51-.65.965-.65.965 1.2 2.51Zm48.37-18.849c1.2-.561 1.99-1.089.59-1.686-.34-.149-1.76-.003-2.06.208-1.08.778.11 1.12 1.47 1.478Zm-29 19.044c1.9.098 3.09.16 4.66.23-1.72-1.53-2.22-1.554-4.66-.23Zm-39.24-3.849c.07.5.02.762.18.998.15.235.5.425.82.635 2.36-1 2.32-1.039-1-1.633ZM2503.5 8.836c2.44.463 3.88.155 5.97-.395-2.64-.737-4-.19-5.97.395Zm61.95 5.109c-.72.485-1.2.842-1.73 1.2.52.185.78.316.95.291 1.7-.136 2.05-.549.78-1.49Zm13.28-9.863c1.04-.174 2.05-.327 3.09-.502-1.74-.425-1.74-.425-3.35.05.1.137.2.294.26.452Zm-36.37 15.734c.74.056 1.45.133 2.19.169.08-.003.29-.31.24-.33-.64-.179-1.32-.358-1.99-.516-.14.225-.31.451-.44.677Zm-13.08-11.493c-.59.2-1.13.418-1.72.618.14.096.27.192.41.268.58-.2 1.13-.418 1.72-.618-.14-.096-.28-.192-.41-.268Zm27.22 15.769c-.69-.199-1.33-.379-2.01-.577-.15.125-.34.232-.48.357.6.24 1.21.462 1.81.703.23-.168.45-.335.68-.483Zm19.2-19.767c-.4-.208-.8-.416-1.19-.604-.15.085-.35.152-.5.237.4.208.79.396 1.19.604.15-.085.35-.152.5-.237Zm-25.43 18.306c.56.163 1.11.306 1.66.468.11-.104.26-.189.38-.273-.56-.203-1.08-.386-1.64-.589-.11.124-.25.27-.4.395Zm-3.19.919c.41-.294.84-.469.79-.567-.12-.218-.51-.386-.82-.576-.23.128-.7.264-.69.364.07.218.39.429.72.78Zm-11.46.679c.42-.275.83-.549 1.2-.842.04-.021-.56-.203-.86-.313-.37.273-.75.546-1.16.84.3.091.56.203.82.315Z"/><path d="M2532.13 24.78c.46.647 1.32.94 3.57.626-1.68-.266-2.68-.414-3.64-.563l.07-.063Zm-26.06-21.158 2.39.102c.03-.1.06-.222.04-.322-.78-.035-1.6-.048-2.39-.083-.02.101-.01.201-.04.303Zm31.63 39.52c.4-.053.98-.032 1.13-.137.22-.148.1-.425.11-.647-.31.091-.76.126-.91.251-.18.166-.15.386-.25.57a.55.55 0 0 0-.08-.037Zm15.78-22.33c-.76-.116-1.14-.244-1.47-.213-.24.028-.41.254-.47.417-.03.081.32.29.44.267.29-.03.52-.158 1.5-.47Zm2.81-.603c.23.153.37.249.5.365.28-.09.55-.179.83-.288-.14-.096-.29-.272-.41-.268-.32.03-.6.12-.92.19Zm24.9-2.275c.13.096.27.232.48.265.21.034.49-.056.73-.084-.18-.114-.33-.27-.54-.343-.17-.035-.48.096-.67.162Zm-12.94-10.806c.1-.124.29-.23.28-.35-.01-.06-.35-.11-.56-.163-.1.124-.29.23-.28.35.01.06.35.11.56.163Zm-34.6 1.038c.06-.102.17-.186.24-.289-.21-.033-.46-.125-.63-.1-.11.024-.17.187-.29.271.25.032.47.085.68.118Zm-22.08-.012c-.23.128-.55.199-.54.279.01.1.2.254.41.287.17.035.44-.054.64-.08-.14-.157-.33-.311-.51-.486Zm52.18 20.154c-.25.008-.58 0-.77.066-.35.132-.66.302-1.01.454a23 23 0 0 0 .49.245c.35-.132.74-.265 1-.434.15-.085.09-.244.16-.367.04-.02.13.037.13.037Z"/><path d="M0 0h2614v34L0 26.444V0Z"/></g><defs><clipPath id="a"><path fill="#fff" d="M0 0h2589v58H0z"/></clipPath></defs></svg>