<svg width="24" height="24" fill="none" xmlns="http://www.w3.org/2000/svg"><path fill-rule="evenodd" clip-rule="evenodd" d="M19.6 12a7.6 7.6 0 1 1-15.2 0 7.6 7.6 0 0 1 15.2 0zm1.4 0a9 9 0 1 1-18 0 9 9 0 0 1 18 0zm-9.9 1.906v.086h1.297v-.086c.006-.347.045-.639.117-.875.073-.235.188-.44.345-.612a3.06 3.06 0 0 1 .626-.498c.272-.163.504-.35.698-.563.196-.211.347-.451.453-.72.106-.272.159-.578.159-.916 0-.493-.117-.923-.35-1.292a2.312 2.312 0 0 0-.97-.866c-.416-.209-.903-.313-1.46-.313-.507 0-.97.097-1.39.29a2.412 2.412 0 0 0-1.007.857c-.254.375-.392.834-.413 1.378h1.378c.021-.32.101-.581.24-.784.14-.206.315-.357.526-.453.212-.097.434-.145.667-.145.257 0 .49.054.698.163.212.106.38.257.508.453.127.197.19.43.19.698 0 .224-.042.428-.127.612-.084.185-.2.348-.344.49-.145.142-.309.27-.49.385-.281.17-.521.357-.72.563-.2.205-.354.474-.463.806-.106.333-.162.78-.168 1.342zm.045 2.58a.88.88 0 0 0 .64.263c.166 0 .317-.041.453-.123a.938.938 0 0 0 .326-.326.864.864 0 0 0 .127-.458.85.85 0 0 0-.272-.635.867.867 0 0 0-.634-.267.872.872 0 0 0-.64.267.858.858 0 0 0-.267.635c0 .251.09.466.267.644z" fill="#3858E9"/></svg>
