<svg width="24" height="24" fill="none" xmlns="http://www.w3.org/2000/svg"><mask id="a" fill="#fff"><path d="M20.543 12a9 9 0 1 1-18 0 9 9 0 0 1 18 0z"/></mask><path d="M19.142 12a7.6 7.6 0 0 1-7.6 7.6v2.8c5.744 0 10.4-4.656 10.4-10.4h-2.8zm-7.6 7.6a7.6 7.6 0 0 1-7.6-7.6h-2.8c0 5.744 4.657 10.4 10.4 10.4v-2.8zm-7.6-7.6a7.6 7.6 0 0 1 7.6-7.6V1.6C5.8 1.6 1.143 6.256 1.143 12h2.8zm7.6-7.6a7.6 7.6 0 0 1 7.6 7.6h2.8c0-5.744-4.656-10.4-10.4-10.4v2.8z" fill="#E26F56" mask="url(#a)"/><path fill="#E26F56" d="M15.573 15.04l-.99.99-7.071-7.07.99-.99z"/><path fill="#E26F56" d="M14.584 7.97l.99.99-7.07 7.07-.99-.99z"/></svg>
